<?xml version="1.0" standalone="no"?>
<!DOCTYPE svg PUBLIC "-//W3C//DTD SVG 1.1//EN" "http://www.w3.org/Graphics/SVG/1.1/DTD/svg11.dtd" >
<svg xmlns="http://www.w3.org/2000/svg" xmlns:xlink="http://www.w3.org/1999/xlink" version="1.1">
<metadata>
Created by FontForge 20150824 at Mon Dec  7 20:28:12 2015
 By Everything Fonts
Copyright 1999 Agfa Corporation. All Rights Reserved.
</metadata>
<defs>
<font id="TimesBoldItalic" horiz-adv-x="1024" >
  <font-face 
    font-family="TimesBoldItalic"
    font-weight="700"
    font-style="italic"
    font-stretch="normal"
    units-per-em="2048"
    panose-1="2 2 7 3 6 5 5 9 3 4"
    ascent="1638"
    descent="-410"
    x-height="941"
    cap-height="1489"
    bbox="-410 -505 2043 1896"
    underline-thickness="102"
    underline-position="-358"
    slope="-14.9998"
    unicode-range="U+0020-2592"
  />
<missing-glyph horiz-adv-x="1022" 
d="M76 0v1074h870v-1074h-870zM332 256h358v562h-358v-562z" />
    <glyph glyph-name=".notdef" horiz-adv-x="1022" 
d="M76 0v1074h870v-1074h-870zM332 256h358v562h-358v-562z" />
    <glyph glyph-name=".null" horiz-adv-x="0" 
 />
    <glyph glyph-name="nonmarkingreturn" horiz-adv-x="512" 
 />
    <glyph glyph-name="space" unicode=" " horiz-adv-x="512" 
 />
    <glyph glyph-name="uni0021" unicode="!" horiz-adv-x="797" 
d="M95 122q0 61 43 105q44 45 106 45q63 0 108 -45q46 -44 46 -105q0 -57 -40 -101q-40 -43 -117 -43q-60 0 -103 42t-43 102zM361 424l-62 14q100 512 113 772q7 202 168 202q52 0 93 -37q42 -37 42 -110q0 -66 -34 -129q-188 -361 -320 -712z" />
    <glyph glyph-name="uni0022" unicode="&#x22;" horiz-adv-x="1137" 
d="M894 820h-85q8 112 23 279q16 167 29 207q12 36 47 71q36 35 94 35q45 0 70 -31q26 -30 26 -71q0 -27 -46 -131zM361 820h-85q8 112 23 279q16 167 29 207q12 36 47 71q36 35 94 35q45 0 70 -31q26 -30 26 -71q0 -27 -46 -131z" />
    <glyph glyph-name="uni0023" unicode="#" 
d="M-45 0v0l171 432v0h-196l41 149h216v0l106 272v0h-186l41 149h205v0l178 439v0v0h160l-176 -439v0h222v0l178 439h160l-176 -439v0h180l-41 -149h-202v0l-103 -272v0h174l-41 -149h-194v0l-173 -432h-160l171 432v0h-222v0l-173 -432v0v0h-160zM349 581v0h222v0l106 272
v0h-225v0z" />
    <glyph glyph-name="uni0024" unicode="$" 
d="M437 629v0q-139 95 -206 178q-67 84 -67 193q0 157 115 266q115 110 297 110v0q32 0 72 -6v0l37 134v0h102l-41 -147v0q75 -12 154 -48q79 -35 132 -78l-86 -271l-45 10v39q0 232 -173 277v0l-126 -442v0q200 -174 247 -256q48 -81 48 -179q0 -167 -136 -288t-327 -121v0
h-61v0l-61 -224v0h-107v0l60 223v15q-101 22 -176 64q-74 42 -130 98l86 288l45 -12v0q0 -171 50 -250q50 -78 149 -116v0zM525 564v0l-135 -497v0q18 -1 29 -1q100 0 176 66q77 67 77 199q0 128 -147 233zM627 1304v0q-13 6 -39 6q-94 0 -157 -51q-62 -50 -62 -145
q0 -112 144 -216v0z" />
    <glyph glyph-name="uni0025" unicode="%" horiz-adv-x="1706" 
d="M780 1215v0q4 -15 4 -37q0 -208 -124 -389q-123 -181 -317 -181q-99 0 -180 80t-81 201q0 202 149 355q150 154 302 154q90 0 170 -58q80 -57 210 -57q179 0 335 143h82l-813 -1440h-115l719 1271v0q-149 -52 -246 -52q-28 0 -95 10zM588 1296q-82 0 -175 -188
q-93 -187 -93 -309q0 -97 104 -97q90 0 188 148q98 149 98 316q0 65 -17 72t-42 19q-13 6 -32 22q-18 17 -31 17zM935 253q0 185 141 350t314 165q133 0 190 -73q57 -72 57 -174q0 -183 -121 -363q-120 -180 -312 -180q-121 0 -195 81t-74 194zM1173 190q0 -118 110 -118
q85 0 182 148q98 148 98 298q0 55 -26 101q-25 47 -78 47q-98 0 -192 -190t-94 -286z" />
    <glyph glyph-name="uni0026" unicode="&#x26;" horiz-adv-x="1593" 
d="M494 795v0q-21 123 -21 190q0 181 103 304q104 123 279 123v0q113 0 198 -61q85 -60 85 -166q0 -215 -375 -361v0q42 -242 183 -475v0q152 191 152 264q0 63 -112 82v51h432v-51q-78 -13 -123 -48q-44 -34 -95 -100q-110 -139 -203 -267v0q113 -154 225 -154q78 0 160 78
l52 -43q-93 -111 -173 -154t-179 -43q-162 0 -290 126v0q-172 -126 -399 -126q-153 0 -269 87q-115 88 -115 270q0 138 96 239q97 101 241 166zM512 711v0q-141 -69 -186 -143q-44 -74 -44 -174q0 -97 64 -191q65 -94 191 -94q82 0 198 56v0q-160 251 -223 546zM746 897v0
q227 120 227 299q0 148 -106 148q-145 0 -145 -246q0 -63 24 -201z" />
    <glyph glyph-name="uni0027" unicode="'" horiz-adv-x="569" 
d="M345 820h-85q8 112 23 279q16 167 29 207q12 36 47 71q36 35 94 35q45 0 70 -31q26 -30 26 -71q0 -27 -46 -131z" />
    <glyph glyph-name="uni0028" unicode="(" horiz-adv-x="682" 
d="M394 -332l-47 -28q-287 392 -287 776q0 316 151 554q151 237 453 443l38 -43q-255 -234 -351 -512q-97 -278 -97 -665q0 -270 140 -525z" />
    <glyph glyph-name="uni0029" unicode=")" horiz-adv-x="682" 
d="M218 1385l47 28q287 -392 287 -776q0 -316 -151 -554q-151 -237 -453 -443l-38 43q255 234 351 512q97 278 97 665q0 270 -140 525z" />
    <glyph glyph-name="uni002a" unicode="*" 
d="M518 1012v0v8q0 89 -42 164q-43 81 -43 123q0 44 27 74q27 31 80 31q49 0 75 -27q26 -26 26 -86q0 -40 -44 -118q-41 -72 -41 -153v-16l17 -12q74 48 149 157q52 79 113 79q49 0 77 -32q29 -32 29 -69q0 -75 -80 -103q-20 -7 -116 -13q-80 -4 -156 -50v-20q29 -14 69 -28
q41 -13 81 -17q30 -2 109 -7q93 -8 93 -108q0 -42 -26 -71q-25 -29 -81 -29q-27 0 -50 13t-46 44l-66 89q-42 59 -101 86l-15 -8q4 -96 44 -181q41 -82 41 -113q0 -44 -33 -75t-78 -31q-38 0 -68 31q-29 32 -29 80q0 40 42 115q43 73 43 174v0l-17 8q-83 -53 -154 -155
q-32 -45 -55 -61t-53 -16q-44 0 -75 27t-31 71q0 26 12 50q13 25 46 46q26 16 89 20q32 2 96 9q65 8 109 41v19q-63 34 -246 65q-106 13 -106 96q0 47 23 75q24 28 76 28q68 0 118 -75q69 -103 93 -123t62 -36z" />
    <glyph glyph-name="uni002b" unicode="+" horiz-adv-x="1167" 
d="M64 610h432v432h180v-432h432v-180h-432v-432h-180v432h-432v180z" />
    <glyph glyph-name="uni002c" unicode="," horiz-adv-x="512" 
d="M-104 -385l-28 47q121 64 181 122q61 58 61 119q0 29 -32 55q-31 27 -70 63q-40 37 -40 96q0 67 38 110q39 44 107 44q70 0 121 -52t51 -143q0 -136 -103 -257q-103 -120 -286 -204z" />
    <glyph glyph-name="uni002d" unicode="-" horiz-adv-x="682" 
d="M5 337l47 237h497l-47 -237h-497z" />
    <glyph glyph-name="uni002e" unicode="." horiz-adv-x="512" 
d="M-16 130q0 65 45 107t109 42q61 0 105 -41t44 -108q0 -64 -40 -109t-114 -45q-68 0 -109 45q-40 45 -40 109z" />
    <glyph glyph-name="uni002f" unicode="/" horiz-adv-x="569" 
d="M-133 -36l652 1448h180l-652 -1448h-180z" />
    <glyph glyph-name="uni0030" unicode="0" 
d="M37 430q0 335 185 655q186 320 445 320q143 0 231 -127t88 -336q0 -373 -186 -669q-185 -295 -426 -295q-151 0 -244 121q-93 122 -93 331zM250 183q0 -142 106 -142q148 0 282 504q135 505 135 645q0 152 -104 152q-136 0 -278 -512q-141 -512 -141 -647z" />
    <glyph glyph-name="uni0031" unicode="1" 
d="M12 0v51q122 0 177 44q46 35 79 151l247 878q13 40 13 63q0 71 -94 71q-63 0 -131 -10l4 51q295 44 553 106v0l-310 -1131q-30 -109 -30 -133q0 -56 50 -73q51 -17 151 -17v-51h-709z" />
    <glyph glyph-name="uni0032" unicode="2" 
d="M218 227v0h326q129 0 173 38t92 119h53l-164 -384h-755v49l238 237q463 459 463 697q0 86 -24 138t-63 74q-43 26 -101 26q-162 0 -280 -184l-45 25q160 343 446 343q150 0 246 -103q96 -102 96 -246q0 -127 -83 -250q-82 -123 -169 -197z" />
    <glyph glyph-name="uni0033" unicode="3" 
d="M279 762q390 79 390 315q0 84 -49 133q-49 50 -130 50q-82 0 -138 -40q-55 -39 -111 -119l-45 27q172 277 425 277q126 0 216 -81q90 -80 90 -196q0 -195 -246 -309v0q160 -112 160 -306q0 -224 -176 -380q-176 -155 -428 -155q-143 0 -207 47q-63 48 -63 106v7
q0 47 29 79q30 33 79 33h11q77 0 139 -96q61 -94 131 -94q93 0 160 101t67 233q0 148 -80 235q-79 88 -232 88v0z" />
    <glyph glyph-name="uni0034" unicode="4" 
d="M-29 309l55 214l886 882h131l-248 -895h143l-56 -201h-143l-86 -309h-262l86 309h-506zM113 510v0h419l160 578v0z" />
    <glyph glyph-name="uni0035" unicode="5" 
d="M152 767l270 609h578l-74 -223h-520v0l-70 -159v0q508 -75 508 -478q0 -240 -179 -389q-178 -149 -429 -149q-130 0 -193 48t-63 102v6q0 50 28 83t83 33h10q77 0 136 -95q61 -95 117 -95q105 0 189 98t84 231q0 169 -131 273q-131 105 -344 105z" />
    <glyph glyph-name="uni0036" unicode="6" 
d="M1049 1349v0v0q-402 -144 -578 -503q48 16 73 21q26 6 62 6q133 0 220 -90q88 -89 88 -270q0 -224 -150 -380q-149 -155 -350 -155q-365 0 -365 444q0 331 270 621t718 355v0zM274 196q0 -155 121 -155q114 0 185 247q72 247 72 362q0 141 -131 141q-58 0 -82 -21
t-53 -96q-112 -306 -112 -478z" />
    <glyph glyph-name="uni0037" unicode="7" 
d="M299 1376h780v0l-784 -1376h-188l681 1145v0h-313q-144 0 -206 -44q-61 -44 -97 -109h-53z" />
    <glyph glyph-name="uni0038" unicode="8" 
d="M384 708v0q-103 106 -131 178q-28 73 -28 146q0 161 111 267q112 106 283 106q145 0 255 -77q110 -76 110 -213q0 -119 -76 -194t-227 -140v0q184 -177 184 -376q0 -192 -130 -310q-129 -117 -315 -117q-198 0 -305 97t-107 239q0 135 91 229q92 94 285 165zM433 664v0
q-224 -149 -224 -370q0 -120 55 -187q56 -66 154 -66q96 0 154 77q59 78 59 183q0 92 -43 160q-43 69 -155 203zM640 831v0q89 93 120 155t31 136q0 105 -48 162q-48 58 -118 58q-81 0 -126 -59q-45 -58 -45 -147q0 -133 186 -305z" />
    <glyph glyph-name="uni0039" unicode="9" 
d="M-12 -22l-12 49v0v0q399 146 574 512q-84 -29 -135 -29q-113 0 -209 85q-95 85 -95 258q0 226 144 389q145 163 356 163q182 0 273 -119q92 -118 92 -327q0 -334 -273 -627q-272 -293 -715 -354v0zM373 735q0 -137 134 -137q77 0 106 52q30 53 77 202q61 195 61 333
q0 157 -97 157q-137 0 -209 -246q-72 -245 -72 -361z" />
    <glyph glyph-name="uni003a" unicode=":" horiz-adv-x="682" 
d="M240 794q0 65 45 107t109 42q61 0 105 -41t44 -108q0 -64 -40 -109t-114 -45q-68 0 -109 45q-40 45 -40 109zM50 130q0 65 45 107t109 42q61 0 105 -41t44 -108q0 -64 -40 -109t-114 -45q-68 0 -109 45q-40 45 -40 109z" />
    <glyph glyph-name="uni003b" unicode=";" horiz-adv-x="682" 
d="M-32 -385l-28 47q121 64 181 122q61 58 61 119q0 29 -32 55q-31 27 -70 63q-40 37 -40 96q0 67 38 110q39 44 107 44q70 0 121 -52t51 -143q0 -136 -103 -257q-103 -120 -286 -204zM240 794q0 65 45 107t109 42q61 0 105 -41t44 -108q0 -64 -40 -109t-114 -45
q-68 0 -109 45q-40 45 -40 109z" />
    <glyph glyph-name="uni003c" unicode="&#x3c;" horiz-adv-x="1167" 
d="M1102 1059l-1040 -464v-155l1040 -464v180l-804 361v0l804 362v180z" />
    <glyph glyph-name="uni003d" unicode="=" horiz-adv-x="1167" 
d="M64 403h1040v-180h-1040v180zM64 823h1040v-180h-1040v180z" />
    <glyph glyph-name="uni003e" unicode="&#x3e;" horiz-adv-x="1167" 
d="M65 1059l1040 -464v-155l-1040 -464v180l804 361v0l-804 362v180z" />
    <glyph glyph-name="uni003f" unicode="?" 
d="M307 -36q-60 0 -103 42t-43 102q0 61 43 105q44 45 106 45q63 0 108 -45q46 -44 46 -105q0 -57 -40 -101q-40 -43 -117 -43zM403 418l-62 14q8 156 137 319q175 215 201 283q26 69 26 142q0 167 -146 167q-45 0 -85 -22q-40 -21 -40 -53q0 -15 31 -58t31 -86
q0 -50 -37 -85q-36 -34 -88 -34q-53 0 -90 38q-36 39 -36 95q0 108 95 187q96 80 257 80q178 0 273 -83t95 -214q0 -127 -84 -214q-83 -86 -255 -193q-122 -81 -155 -137q-33 -55 -68 -146z" />
    <glyph glyph-name="uni0040" unicode="@" horiz-adv-x="1704" 
d="M1578 802q0 -176 -106 -337q-105 -161 -279 -161q-90 0 -139 48q-49 49 -49 96v0q-123 -144 -252 -144q-85 0 -142 61q-57 62 -57 190q0 173 120 339q120 167 301 167q41 0 78 -20q37 -19 71 -92l23 84h146l-134 -496q-10 -39 -10 -65q0 -92 77 -92q105 0 182 124
q77 125 77 297q0 203 -174 367q-174 165 -416 165q-259 0 -420 -193q-161 -192 -161 -506q0 -236 176 -403q177 -167 431 -167q196 0 408 96l25 -71q-254 -121 -436 -121q-349 0 -570 209q-220 210 -220 479q0 327 215 541q216 215 527 215q315 0 511 -177
q197 -176 197 -433zM1085 835q0 130 -91 130q-98 0 -192 -119q-93 -118 -93 -272q0 -174 125 -174q110 0 180 160q71 161 71 275z" />
    <glyph glyph-name="uni0041" unicode="A" horiz-adv-x="1366" 
d="M792 1405v0h52l194 -1169q18 -110 42 -143q25 -32 132 -42v-51h-621v51q70 0 115 24t45 95q0 37 -4 66l-27 194v0h-436v0l-119 -210q-33 -57 -33 -95q0 -74 132 -74v-51v0h-400v51q52 10 88 43q37 34 82 104zM331 512v0h375v0l-74 498v0zM812 1492v0v0zM738 0v0v0z
M0 1412v0v0z" />
    <glyph glyph-name="uni0042" unicode="B" horiz-adv-x="1366" 
d="M240 1376h561q480 0 480 -294q0 -129 -86 -213q-85 -83 -298 -136q163 -57 219 -129q57 -72 57 -177q0 -211 -165 -319q-164 -108 -435 -108h-620v0v51q87 12 116 49q30 38 49 105l249 920q23 80 23 113q0 87 -150 87v51zM696 1218l-127 -456q226 0 318 92q93 92 93 255
q0 201 -179 201q-50 0 -71 -19q-20 -18 -34 -73zM555 696l-134 -497q-12 -45 -12 -71q0 -62 118 -62q142 0 236 112q95 112 95 289q0 117 -66 173t-237 56z" />
    <glyph glyph-name="uni0043" unicode="C" horiz-adv-x="1366" 
d="M1120 316l61 -45q-203 -307 -558 -307q-240 0 -399 144q-158 145 -158 393q0 359 244 635t589 276q125 0 222 -32q98 -32 127 -32q26 0 42 14q17 14 38 50h61l-103 -480l-66 12v83q0 153 -71 233t-198 80q-225 0 -398 -300q-172 -299 -172 -601q0 -180 82 -274
q83 -93 221 -93q241 0 436 244zM1001 1492v0v0zM541 0v0v0z" />
    <glyph glyph-name="uni0044" unicode="D" horiz-adv-x="1479" 
d="M-94 0v51q85 12 115 48q31 36 50 106l236 874q36 130 36 163q0 40 -22 55q-22 16 -128 28v51h599q294 0 456 -144t162 -426q0 -337 -254 -572q-254 -234 -668 -234h-582zM362 144q0 -43 27 -61q28 -17 98 -17q279 0 450 246q172 247 172 619q0 379 -334 379
q-72 0 -94 -25t-32 -62l-248 -924q-10 -42 -25 -88q-14 -46 -14 -67zM846 1492v0v0zM0 1412v0v0z" />
    <glyph glyph-name="uni0045" unicode="E" horiz-adv-x="1366" 
d="M-56 0v0v51q96 10 122 53q26 44 43 101l247 919q20 77 20 118q0 52 -40 66q-40 15 -105 17v51h1097l-89 -384l-52 10v0q0 197 -96 252q-96 56 -290 56q-64 0 -87 -22q-22 -21 -34 -66l-120 -460l86 1q162 5 205 44t81 109l36 70l56 -8l-151 -570l-56 10q5 50 5 90
q0 136 -60 162q-59 26 -180 26h-36l-126 -439q-28 -101 -28 -120q0 -71 134 -71q426 0 614 334l52 -10l-128 -390h-1120zM814 1492v0v0zM838 0v0v0zM0 1412v0v0z" />
    <glyph glyph-name="uni0046" unicode="F" horiz-adv-x="1366" 
d="M259 1325v51h1089l-89 -384l-52 10v0q0 193 -93 250q-93 58 -278 58q-66 0 -87 -22q-20 -21 -34 -74l-127 -452q207 0 273 50q66 51 127 174l56 -8l-151 -570l-56 10q5 50 5 88q0 118 -64 154q-63 36 -204 36l-113 -419q-28 -105 -28 -130q0 -96 147 -96v-51h-608v0v51
q93 15 119 53q27 39 46 107l251 910q21 72 21 117q0 37 -16 53q-16 17 -87 27z" />
    <glyph glyph-name="uni0047" unicode="G" horiz-adv-x="1479" 
d="M1331 1412h66l-103 -448l-62 8v0q0 370 -291 370q-233 0 -409 -284q-175 -283 -175 -639q0 -190 91 -287q92 -96 240 -96q167 0 215 78l74 258q36 122 36 176q0 47 -40 64q-40 18 -120 18v51h592v0v-51q-84 0 -111 -41q-27 -40 -49 -123l-96 -374l-58 -28
q-204 -100 -466 -100q-278 0 -451 145q-172 145 -172 415q0 343 250 615q251 273 611 273q126 0 221 -31q96 -30 123 -30q28 0 46 12q19 12 38 49zM1039 1492v0v0zM765 0v0v0z" />
    <glyph glyph-name="uni0048" unicode="H" horiz-adv-x="1593" 
d="M571 764h484l95 356q21 78 21 117q0 50 -39 66q-38 17 -108 22v51h608v-51q-85 -13 -115 -43q-30 -29 -54 -117l-229 -830q-44 -161 -44 -201q0 -83 150 -83v-51h-656v51q89 0 141 33q52 34 78 127l127 463h-481l-107 -377q-33 -119 -33 -156q0 -56 40 -73
q41 -17 112 -17v-51h-608v51q96 16 121 53t44 107l247 906q25 88 25 121q0 49 -37 63q-36 15 -113 24v51h656v-51q-110 0 -152 -41t-62 -119z" />
    <glyph glyph-name="uni0049" unicode="I" horiz-adv-x="797" 
d="M-66 0v0v51q54 6 95 31q42 26 65 113l252 914q25 91 25 141q0 29 -20 45q-20 17 -130 30v51h608v-51q-71 -7 -109 -39q-37 -31 -57 -105l-252 -941q-16 -61 -16 -101q0 -84 147 -88v-51h-608zM546 1489v0v0zM256 0v0v0zM0 1409v0v0z" />
    <glyph glyph-name="uni004a" unicode="J" 
d="M466 1325v51h608v-51q-84 -8 -120 -44q-35 -36 -56 -111l-256 -959q-63 -235 -168 -324q-105 -88 -263 -88q-121 0 -213 57q-92 58 -92 149q0 56 34 101q35 45 93 45q64 0 98 -38t34 -91q0 -42 -24 -66q-23 -24 -23 -48q0 -19 14 -27t47 -8q43 0 76 51q34 51 84 238
l250 967q21 80 21 110q0 61 -50 69q-49 8 -94 17z" />
    <glyph glyph-name="uni004b" unicode="K" horiz-adv-x="1366" 
d="M245 1376v0h635v-51q-90 0 -133 -43q-42 -43 -60 -117l-122 -445h11q368 325 461 412q94 88 94 136q0 29 -31 43t-87 14v51h433v-51q-88 0 -130 -42l-510 -466l321 -688q31 -67 136 -78v-51h-574v51q91 10 111 20q21 10 21 46q0 21 -33 93l-222 456l-17 6l-127 -478
q-8 -29 -8 -58q0 -77 137 -85v-51v0h-593v0v51q87 10 116 49q30 40 49 111l249 910q23 84 23 117q0 41 -26 58q-26 18 -124 29v51zM626 0v0v0z" />
    <glyph glyph-name="uni004c" unicode="L" horiz-adv-x="1251" 
d="M-47 0v51q87 12 116 49q30 38 49 105l247 907q25 89 25 130q0 48 -47 65q-46 18 -103 18v51h656v-51q-112 0 -157 -42q-45 -41 -66 -115l-249 -949q-15 -61 -15 -89q0 -60 130 -60q434 0 625 330l52 -10l-122 -390h-1141zM612 1492v0v0zM522 0v0v0zM0 1412v0v0z" />
    <glyph glyph-name="uni004d" unicode="M" horiz-adv-x="1821" 
d="M-61 0v0v51q85 18 117 70q33 52 76 202l234 801q25 88 25 132q0 39 -33 54q-32 15 -113 15v51h451l108 -983v0l630 983h433v-51q-96 -15 -125 -56q-28 -41 -44 -104l-246 -904q-22 -84 -22 -119q0 -54 37 -73q37 -18 108 -18v-51h-640v51q109 10 148 46t64 130l245 903v0
l-757 -1152h-56l-135 1136v0l-214 -770q-32 -121 -32 -168q0 -72 44 -95q44 -22 120 -30v-51h-423z" />
    <glyph glyph-name="uni004e" unicode="N" horiz-adv-x="1479" 
d="M-56 0v0v51q87 18 120 78q34 61 73 194l259 888q-33 70 -69 92t-101 22v51h400l444 -960v0l177 637q25 89 25 151q0 108 -165 121v51h428v-51q-103 -17 -136 -95q-33 -77 -61 -177l-306 -1089h-56l-529 1131v0l-208 -746q-32 -119 -32 -172q0 -65 44 -96q44 -30 121 -30
v-51h-428zM882 1492v0v0zM578 0v0v0zM0 1412v0v0z" />
    <glyph glyph-name="uni004f" unicode="O" horiz-adv-x="1479" 
d="M56 433q0 367 261 673t619 306q209 0 351 -135q142 -134 142 -363q0 -327 -268 -639q-268 -311 -606 -311q-229 0 -364 135q-135 136 -135 334zM357 305q0 -271 208 -271q230 0 396 384q167 385 167 669q0 118 -58 186q-57 69 -153 69q-243 0 -402 -397
q-158 -397 -158 -640zM914 1492v0v0z" />
    <glyph glyph-name="uni0050" unicode="P" horiz-adv-x="1251" 
d="M529 663l-107 -401q-22 -84 -22 -120q0 -54 37 -73q38 -18 109 -18v-51h-602v51q83 14 112 43q30 29 53 111l249 911q23 85 23 126q0 52 -39 63t-111 20v51h588q429 0 429 -325q0 -171 -145 -285q-145 -113 -389 -113q-92 0 -185 10zM550 729q56 -4 84 -4q169 0 241 114
t72 279q0 192 -167 192q-57 0 -74 -27q-17 -26 -28 -71z" />
    <glyph glyph-name="uni0051" unicode="Q" horiz-adv-x="1479" 
d="M523 -34q-94 -86 -94 -98t81 -15t188 -29q58 -13 141 -37q83 -23 146 -23q93 0 164 35t158 133l42 -39q-222 -313 -529 -313q-125 0 -271 45q-145 46 -229 46q-94 0 -236 -59l-28 49l320 262q30 26 39 32q9 7 9 11q0 5 -12 9q-11 5 -22 9q-156 49 -245 168t-89 283
q0 366 264 671q265 306 605 306q220 0 362 -136q142 -135 142 -362q0 -323 -259 -637q-259 -313 -601 -313q-23 0 -46 2zM357 317q0 -281 211 -281q238 0 399 396t161 655q0 255 -217 255q-219 0 -387 -383q-167 -382 -167 -642z" />
    <glyph glyph-name="uni0052" unicode="R" horiz-adv-x="1366" 
d="M541 681l-115 -406q-26 -95 -26 -135q0 -44 26 -65q26 -20 120 -24v-51h-607v0v51q77 8 110 44q34 37 55 116l251 914q21 76 21 117q0 54 -45 65q-44 11 -105 18v51h581q460 0 460 -296q0 -123 -103 -234t-292 -140l178 -525q30 -89 74 -107q45 -17 101 -23v-51h-416
l-219 681h-49zM560 747h28q216 0 297 110q81 111 81 259q0 194 -190 194q-72 0 -94 -96zM785 1492v0v0zM562 0v0v0zM0 1412v0v0z" />
    <glyph glyph-name="uni0053" unicode="S" horiz-adv-x="1139" 
d="M74 428l57 -4q0 -155 79 -272q80 -116 240 -116q121 0 190 77q70 77 70 186q0 107 -134 225q-240 212 -305 291q-64 80 -64 188q0 177 114 293q115 116 303 116q73 0 167 -32t127 -32q67 0 92 56h61l-80 -408l-56 8q-37 336 -266 336q-106 0 -160 -65q-53 -64 -53 -161
q0 -61 36 -110t199 -179q268 -211 268 -421q0 -207 -119 -324q-119 -116 -359 -116q-91 0 -204 32q-112 32 -133 32q-27 0 -47 -14q-19 -14 -37 -50h-61zM648 1492v0v0zM405 0v0v0z" />
    <glyph glyph-name="uni0054" unicode="T" horiz-adv-x="1251" 
d="M103 0v0v51q117 0 156 37q39 38 65 125l296 1093q-300 0 -449 -301l-52 14l80 357h1120l-75 -400l-52 4v0q0 164 -68 245q-67 81 -205 81v0l-278 -1017q-16 -55 -23 -94t-7 -61q0 -53 41 -68q42 -15 123 -15v-51h-672zM807 1492v0v0zM403 0v0v0zM0 1412v0v0z" />
    <glyph glyph-name="uni0055" unicode="U" horiz-adv-x="1479" 
d="M202 1325v51h640v-51q-103 0 -141 -38t-57 -104l-202 -743q-24 -91 -24 -150q0 -211 258 -211q135 0 237 90q102 91 187 389l130 465q35 125 35 185q0 104 -169 117v51h432v-51q-79 -16 -114 -59q-35 -42 -90 -232l-153 -531q-84 -291 -214 -415t-364 -124
q-195 0 -326 96t-131 248q0 92 37 231l161 616q6 22 10 45q4 24 4 43q0 42 -22 55q-22 14 -124 27zM924 1492v0v0zM674 0v0v0zM0 1412v0v0z" />
    <glyph glyph-name="uni0056" unicode="V" horiz-adv-x="1366" 
d="M132 1325v51h611v-51q-88 0 -122 -24q-33 -24 -33 -66q0 -13 10 -96l91 -761v0l406 639q108 172 108 238q0 39 -35 54q-35 16 -101 16v51h395v-51q-84 -25 -131 -98l-797 -1263h-66l-143 976q-41 272 -65 328q-23 57 -112 57h-16z" />
    <glyph glyph-name="uni0057" unicode="W" horiz-adv-x="1821" 
d="M132 1325v51v0h569v-51q-127 -7 -127 -108q0 -13 8 -84l79 -667v0l307 640v0v0q0 146 -35 175q-34 29 -113 44v51h550v-51q-87 -7 -107 -35t-20 -77q0 -30 14 -157l70 -590v0l310 667q33 69 33 115q0 77 -127 77v51h381v-51q-98 0 -173 -153l-579 -1208h-61l-122 1009v0
l-476 -1009v0h-61l-163 1197q-8 66 -24 105q-15 39 -84 51z" />
    <glyph glyph-name="uni0058" unicode="X" horiz-adv-x="1366" 
d="M762 865v0l205 215q133 140 133 188q0 30 -27 43q-27 14 -86 14v51h414v-51q-99 -17 -193 -116l-417 -430v0l153 -494q48 -162 101 -195q54 -33 135 -39v-51h-630v51q66 0 103 18q38 18 38 65q0 43 -22 113l-96 296v0l-272 -301q-66 -72 -66 -107q0 -72 131 -84v-51v0v0
h-437v51q83 24 162 101q79 78 212 224l240 258v0l-170 554q-23 74 -68 105q-44 32 -122 32v51v0v0h626v-51q-90 -9 -121 -23q-30 -14 -30 -58q0 -27 18 -88z" />
    <glyph glyph-name="uni0059" unicode="Y" horiz-adv-x="1251" 
d="M151 0v51q107 9 145 36q38 28 65 126l119 432l-177 543q-15 47 -37 86q-21 40 -115 51v51v0h578v-51q-34 0 -90 -13q-56 -12 -56 -59q0 -41 21 -103l139 -424v0l263 376q34 49 46 75t12 68q0 35 -30 57q-29 23 -111 23v51h428v-51q-99 -19 -184 -143l-390 -548l-105 -387
q-18 -69 -18 -103q0 -58 41 -76q41 -17 114 -17v-51v0h-658zM817 1492v0v0zM0 1412v0v0z" />
    <glyph glyph-name="uni005a" unicode="Z" horiz-adv-x="1251" 
d="M865 1306v0h-162q-178 0 -294 -74t-222 -224l-56 8l118 360h959v-59l-889 -1247v0h163q230 0 359 81t236 249l56 -10l-122 -390h-1035v59zM712 1492v0v0zM0 1412v0v0z" />
    <glyph glyph-name="uni005b" unicode="[" horiz-adv-x="682" 
d="M743 1385l-14 -71h-135q-69 0 -82 -25q-14 -25 -25 -73l-304 -1283l-32 -139q0 -46 73 -46h164l-14 -71v0h-447v0l400 1708v0v0h416z" />
    <glyph glyph-name="uni005c" unicode="\" horiz-adv-x="569" 
d="M406 -32l-406 1444h175l401 -1444h-170z" />
    <glyph glyph-name="uni005d" unicode="]" horiz-adv-x="682" 
d="M-118 -323l14 71h135q69 0 82 25q14 25 25 73l304 1283l32 139q0 46 -73 46h-164l14 71v0h447v0l-400 -1708v0v0h-416z" />
    <glyph glyph-name="uni005e" unicode="^" horiz-adv-x="1167" 
d="M314 625h-176l368 750h163l368 -750h-176l-274 560v0z" />
    <glyph glyph-name="uni005f" unicode="_" 
d="M0 -153h1024v-103h-1024v103z" />
    <glyph glyph-name="uni0060" unicode="`" horiz-adv-x="682" 
d="M515 1056l-251 166q-89 59 -89 114q0 30 27 59q28 29 67 29q59 0 118 -78l220 -290h-92zM440 1056v0v0z" />
    <glyph glyph-name="uni0061" unicode="a" 
d="M514 227q-106 -162 -180 -209q-73 -47 -155 -47q-104 0 -163 70t-59 199q0 224 183 462q184 239 371 239q76 0 117 -49q42 -49 42 -95l39 118l226 14l-174 -579q-41 -137 -41 -201q0 -35 29 -35q38 0 143 142l43 -30q-164 -258 -306 -258q-57 0 -98 37q-41 38 -41 97
q0 38 24 125zM215 235q0 -58 26 -88q27 -30 62 -30q103 0 211 227q109 228 109 403q0 107 -77 107q-108 0 -220 -236q-111 -236 -111 -383zM633 1053v0v0zM755 0v0v0z" />
    <glyph glyph-name="uni0062" unicode="b" 
d="M398 749q68 96 135 144q68 48 157 48q95 0 161 -66t66 -188q0 -263 -200 -490q-200 -226 -456 -226q-89 0 -189 36q-99 36 -99 84q0 36 124 463q188 644 188 689q0 35 -20 51q-19 16 -63 16h-46v55q241 25 426 59v0zM295 41q132 0 248 202q116 203 116 416q0 139 -95 139
q-126 0 -232 -309q-105 -308 -105 -386q0 -62 68 -62z" />
    <glyph glyph-name="uni0063" unicode="c" horiz-adv-x="909" 
d="M667 291l59 -37q-124 -182 -216 -233q-91 -50 -189 -50q-137 0 -219 86q-82 87 -82 225q0 231 179 445t394 214q103 0 166 -47t63 -127q0 -75 -38 -111q-37 -35 -94 -35q-39 0 -77 27q-37 28 -37 82q0 31 20 66q23 35 23 46q0 37 -45 37q-108 0 -202 -207
q-94 -206 -94 -367q0 -203 147 -203q118 0 242 189zM659 1053v0v0zM311 0v0v0z" />
    <glyph glyph-name="uni0064" unicode="d" 
d="M521 243q-147 -272 -341 -272q-108 0 -166 79q-57 80 -57 190q0 230 188 465q189 236 374 236q81 0 150 -64l80 300q14 53 14 74q0 59 -82 59h-47v55q256 20 429 59l-248 -877q-104 -374 -104 -398q0 -31 27 -31q21 0 60 41t78 104l47 -33q-157 -255 -297 -255
q-63 0 -93 30q-30 31 -30 92q0 33 8 84t10 62zM215 241q0 -124 88 -124q112 0 220 258t108 378q0 101 -73 101q-113 0 -228 -238q-115 -237 -115 -375z" />
    <glyph glyph-name="uni0065" unicode="e" horiz-adv-x="909" 
d="M282 371q-12 -56 -12 -97q0 -172 141 -172q106 0 232 189l59 -35q-81 -147 -176 -216q-94 -69 -201 -69q-130 0 -222 82q-91 82 -91 225q0 230 178 446q178 217 411 217q91 0 152 -46q61 -45 61 -134q0 -115 -140 -235q-139 -120 -392 -155zM297 438q137 32 235 128
q99 97 99 239q0 74 -60 74q-74 0 -154 -125q-79 -124 -120 -316zM574 1053v0v0zM446 0v0v0z" />
    <glyph glyph-name="uni0066" unicode="f" horiz-adv-x="682" 
d="M224 824v0h-139l20 88h140v0q128 517 475 517v0q103 0 150 -49q47 -48 47 -113q0 -49 -26 -80q-25 -30 -72 -30q-53 0 -79 30q-26 31 -26 74q0 25 15 43q16 18 16 28q0 20 -9 27q-8 8 -24 8q-110 0 -186 -296l-41 -159v0h192l-20 -88h-188v0q-152 -714 -240 -923
q-133 -317 -374 -317v0q-97 0 -150 44q-52 45 -52 124q0 42 27 73t81 31q41 0 70 -29t29 -69q0 -32 -16 -57q-15 -24 -15 -28q0 -15 9 -21t26 -6q69 0 105 81q36 82 84 297q67 318 171 800z" />
    <glyph glyph-name="uni0067" unicode="g" 
d="M977 874v-114h-137v0q12 -44 12 -86q0 -160 -130 -263q-130 -102 -300 -102h-10q-27 0 -53 8q-26 9 -48 9q-21 0 -41 -26t-20 -46q0 -44 96 -74q97 -29 118 -34q186 -51 247 -112q61 -60 61 -143q0 -136 -135 -222q-135 -85 -361 -85q-154 0 -270 52q-116 53 -116 152
q0 82 54 133t218 91q-123 43 -123 131q0 56 37 96q38 41 155 104q-75 28 -118 84q-43 57 -43 143q0 143 126 257q127 114 331 114q136 0 223 -67h227zM226 -14q-29 0 -93 -55q-63 -55 -63 -117q0 -64 62 -112t157 -48q139 0 200 38t61 105q0 79 -95 117q-64 24 -138 48
t-91 24zM308 496q0 -125 92 -125q88 0 151 131t63 246q0 131 -92 131q-93 0 -154 -138q-60 -138 -60 -245zM537 1053v0v0z" />
    <glyph glyph-name="uni0068" unicode="h" horiz-adv-x="1139" 
d="M383 573q121 188 223 278t204 90q155 0 155 -158q0 -47 -25 -127l-111 -348q-24 -77 -37 -113q-12 -36 -14 -45q0 -21 8 -29t25 -8q36 0 154 162l47 -30q-110 -172 -183 -223q-72 -51 -155 -51q-138 0 -138 129q0 81 40 205l114 351q25 79 25 92q0 46 -43 46
q-73 0 -204 -182q-131 -181 -249 -612h-246l309 1138q23 83 23 108q0 36 -22 51q-21 16 -70 16q-25 0 -37 -3v55q215 19 425 59v0z" />
    <glyph glyph-name="uni0069" unicode="i" horiz-adv-x="569" 
d="M437 275l47 -29q-116 -177 -190 -226q-73 -49 -146 -49q-144 0 -144 137q0 46 33 166l102 378q25 89 25 110q0 65 -107 65h-14v55q250 18 414 59v0l-182 -666q-25 -90 -25 -130q0 -14 9 -23t24 -9q48 0 154 162zM255 1256q0 57 39 97q40 40 98 40q57 0 98 -41
q42 -40 42 -98q0 -52 -38 -95q-38 -42 -108 -42q-41 0 -86 36t-45 103zM263 0v0v0z" />
    <glyph glyph-name="uni006a" unicode="j" horiz-adv-x="569" 
d="M574 1254q0 -52 -38 -95q-38 -42 -108 -42q-41 0 -86 36t-45 103q0 57 39 97q40 40 98 40q57 0 98 -41q42 -40 42 -98zM494 941l-238 -912q-118 -445 -419 -445q-97 0 -160 41t-63 118q0 38 26 73t70 35q43 0 73 -30q30 -29 30 -73q0 -27 -16 -50q-15 -22 -15 -28
q0 -24 45 -24q35 0 70 41t78 199l200 769q19 72 19 110q0 44 -31 53t-101 9v55q271 20 432 59z" />
    <glyph glyph-name="uni006b" unicode="k" 
d="M568 912h425v-55q-114 -17 -228 -110l-182 -153v0q55 -304 89 -388q34 -83 72 -83q51 0 128 125l47 -22q-88 -156 -146 -203q-57 -47 -124 -47q-109 0 -167 116q-57 116 -94 341v0l-84 -55l-101 -378h-250v0l320 1155q16 63 16 88q0 39 -31 53t-74 14h-24v55
q210 19 425 59v0l-249 -940v0q10 7 173 137q164 130 164 189q0 43 -105 47v55zM349 0v0v0z" />
    <glyph glyph-name="uni006c" unicode="l" horiz-adv-x="569" 
d="M441 275l47 -29q-117 -177 -188 -226q-70 -49 -150 -49q-146 0 -146 136q0 58 45 218l205 745q39 143 39 179q0 37 -24 49q-23 12 -105 12v55q212 15 429 59v0l-306 -1095q-37 -135 -37 -184q0 -14 9 -23q9 -8 24 -8q49 0 158 161zM526 1536v0v0zM121 0v0v0z" />
    <glyph glyph-name="uni006d" unicode="m" horiz-adv-x="1593" 
d="M355 541q185 275 274 337q90 63 174 63q55 0 94 -35q40 -34 40 -94q0 -80 -50 -207q159 228 236 282q78 54 169 54q75 0 114 -47q39 -46 39 -111q0 -81 -93 -346q-45 -130 -68 -200q-22 -70 -22 -95q0 -11 6 -20t26 -9h5q22 0 53 37q32 37 81 109l47 -26
q-96 -160 -171 -211q-74 -51 -155 -51q-138 0 -138 135q0 90 91 358q92 271 92 284q0 46 -45 46q-76 0 -187 -160q-110 -160 -252 -634h-246l176 554q50 155 50 193q0 47 -37 47q-71 0 -201 -190q-130 -189 -238 -604h-246l154 539q57 193 57 233q0 55 -88 55h-25v55l127 10
q128 11 282 49v0z" />
    <glyph glyph-name="uni006e" unicode="n" horiz-adv-x="1139" 
d="M-12 0l146 520q65 227 65 255q0 33 -25 42q-24 10 -88 10v55q167 0 409 59v0l-128 -400q119 181 217 290q98 110 231 110q149 0 149 -165q0 -76 -91 -342q-63 -178 -76 -227q-13 -48 -13 -55q0 -23 7 -31t26 -8q39 0 139 146l47 -26q-89 -151 -163 -207q-74 -55 -156 -55
q-145 0 -145 135q0 87 89 357q55 163 72 213q18 50 18 70q0 25 -13 36q-12 12 -36 12q-68 0 -181 -168q-113 -167 -187 -388q-37 -118 -67 -238h-246zM622 1053v0v0zM440 0v0v0z" />
    <glyph glyph-name="uni006f" unicode="o" 
d="M-8 278q0 246 178 454q178 209 418 209q131 0 224 -84q94 -83 94 -234q0 -232 -171 -442q-170 -210 -411 -210q-131 0 -232 79q-100 80 -100 228zM234 172q0 -139 106 -139q125 0 224 266q100 266 100 451q0 129 -99 129q-136 0 -234 -264q-97 -264 -97 -443zM603 1053v0
v0z" />
    <glyph glyph-name="uni0070" unicode="p" 
d="M-246 -416v0v55q85 0 109 37t47 125l225 871q21 80 21 99q0 35 -21 45q-20 11 -56 11h-32v0v55q124 14 394 59v0l-76 -224q155 224 319 224q222 0 222 -261q0 -222 -168 -466q-168 -243 -393 -243q-31 0 -68 12q-36 12 -68 33l-62 -235q-14 -55 -14 -76q0 -40 29 -53
t103 -13v-55h-511zM230 118q0 -33 23 -55t55 -22q112 0 226 227q114 228 114 424q0 106 -75 106q-153 0 -248 -311t-95 -369z" />
    <glyph glyph-name="uni0071" unicode="q" 
d="M217 -416v55q96 0 129 32q34 32 54 100l125 424q-146 -224 -301 -224q-220 0 -220 284q0 211 183 448q184 238 370 238q65 0 107 -38q43 -37 48 -106l32 115h222l-270 -943q-70 -247 -70 -270q0 -60 99 -60h38v-55h-546zM262 244q0 -126 87 -126q115 0 216 238
q101 239 101 392q0 106 -71 106q-108 0 -221 -235q-112 -235 -112 -375z" />
    <glyph glyph-name="uni0072" unicode="r" horiz-adv-x="797" 
d="M-43 0v0l136 456q75 250 75 307q0 38 -27 51q-26 13 -86 13v0v55l153 14q153 15 256 45v0l-117 -368q149 267 212 317q63 51 114 51q53 0 84 -37q32 -36 32 -98q0 -63 -32 -108t-91 -45q-41 0 -76 41q-9 8 -20 24q-11 17 -22 17q-45 0 -127 -141q-81 -141 -146 -359
q-47 -158 -72 -235h-246zM523 1053v0v0zM149 0v0v0z" />
    <glyph glyph-name="uni0073" unicode="s" horiz-adv-x="797" 
d="M52 307l54 -6q12 -127 66 -198q54 -70 131 -70q57 0 87 33q31 34 31 73q0 44 -16 77q-16 34 -59 85q-165 197 -189 263q-24 67 -24 123q0 110 74 182t207 72q54 0 110 -23q57 -22 88 -22t57 42h59l-47 -317l-54 4q-41 250 -185 250q-61 0 -88 -33q-26 -32 -26 -80
q0 -29 20 -65q20 -35 53 -75q139 -175 177 -238q38 -62 38 -141q0 -122 -87 -197q-86 -75 -217 -75q-52 0 -115 20q-62 21 -80 21q-45 0 -57 -41h-55zM527 1053v0v0zM291 0v0v0z" />
    <glyph glyph-name="uni0074" unicode="t" horiz-adv-x="569" 
d="M569 912v-88h-163l-153 -544q-26 -97 -26 -131q0 -17 8 -27q9 -9 25 -9q28 0 81 65q53 66 69 97l47 -29q-121 -184 -194 -230q-72 -45 -142 -45q-57 0 -101 32q-43 33 -43 101v0q0 56 51 236l136 484h-101v74q230 91 374 318h71l-82 -304h143zM195 0v0v0z" />
    <glyph glyph-name="uni0075" unicode="u" horiz-adv-x="1139" 
d="M765 912h242q-60 -205 -119 -409q-92 -308 -92 -349t33 -41q44 0 143 146l43 -27q-147 -261 -326 -261q-68 0 -102 33q-33 34 -33 86q0 72 43 217q-135 -192 -224 -264q-88 -72 -181 -72q-77 0 -119 41t-42 116q0 74 74 327q78 256 78 309q0 63 -113 63v55q110 4 230 25
t199 34v0l-199 -640q-27 -87 -27 -132q0 -51 46 -51q54 0 141 105q61 71 99 140q96 167 206 549zM686 1053v0v0zM819 0v0v0zM0 941v0v0z" />
    <glyph glyph-name="uni0076" unicode="v" horiz-adv-x="909" 
d="M822 797q0 -275 -592 -826h-55l12 354q0 135 -11 241q-17 168 -38 214q-21 47 -72 47h-35v55q97 14 316 59q57 -192 68 -682v0q259 288 259 384q0 28 -45 79q-45 53 -45 105q0 46 32 80t79 34q41 0 84 -38t43 -106z" />
    <glyph glyph-name="uni0077" unicode="w" horiz-adv-x="1366" 
d="M413 380v0q103 188 322 561h55l66 -674v0q244 283 244 366q0 33 -43 88t-43 97q0 51 35 87q36 36 77 36q54 0 92 -36t38 -93q0 -260 -560 -841h-55l-46 584v0q-54 -112 -166 -302q-111 -189 -183 -282h-55q5 110 3 173q1 355 -40 559q-17 83 -36 103q-21 21 -87 21v0v55
q103 14 316 59q61 -237 66 -561z" />
    <glyph glyph-name="uni0078" unicode="x" 
d="M845 707q-30 0 -64 20q-34 21 -59 21q-36 0 -79 -49q-42 -49 -101 -133v0l63 -320q23 -117 83 -117q38 0 133 120l43 -29q-171 -249 -304 -249q-152 0 -205 318v0l-67 -111q-74 -123 -127 -166q-52 -41 -127 -41q-53 0 -91 32q-37 33 -37 89q0 47 31 81t86 34
q43 0 75 -22q33 -21 48 -21q48 0 109 98l78 126v0l-51 271q-10 55 -32 118q-21 63 -92 63q-31 0 -72 -4v55l343 50q47 -67 93 -280v0q121 175 189 227q68 53 139 53q47 0 79 -39q33 -39 33 -82q0 -48 -35 -81q-34 -32 -82 -32z" />
    <glyph glyph-name="uni0079" unicode="y" horiz-adv-x="909" 
d="M27 891q179 16 304 50v0q75 -178 159 -710v0q172 343 172 402q0 43 -58 86q-55 40 -55 111q0 40 35 75q35 36 86 36q55 0 90 -34q35 -33 35 -100q0 -219 -272 -682q-187 -307 -325 -424q-137 -117 -266 -117q-56 0 -93 39q-36 39 -36 85q0 42 32 77t79 35q42 0 103 -38
q61 -34 80 -34q48 0 117 105t69 208v0v0q0 66 -46 299q-40 194 -62 270q-38 142 -62 172q-24 34 -86 34v0v55zM540 1053v0v0zM0 941v0v0z" />
    <glyph glyph-name="uni007a" unicode="z" horiz-adv-x="797" 
d="M-90 -3l606 718v0h-298q-88 0 -136 -123l-59 6l90 314h645v-21l-579 -678v0q43 -13 94 -53q51 -39 96 -117l48 -87q33 -60 77 -60q24 0 34 6q11 6 11 27q0 11 -20 37q-19 26 -19 60q0 31 29 63q29 33 73 33q47 0 78 -30q31 -29 31 -83q0 -65 -60 -120t-154 -55
q-122 0 -246 88q-123 88 -179 88q-31 0 -55 -18t-56 -40zM439 1053v0v0zM0 941v0v0z" />
    <glyph glyph-name="uni007b" unicode="{" horiz-adv-x="713" 
d="M16 513v0q166 39 214 97q49 58 74 155v0l90 351q32 133 127 212q95 80 349 80h26l-6 -25q-135 -27 -194 -84q-58 -56 -88 -174v0l-85 -328q-30 -122 -89 -186q-58 -63 -218 -98v0l31 -11q72 -23 112 -52q41 -28 41 -104q0 -45 -65 -266q-63 -220 -63 -282
q0 -135 160 -157l-6 -25q-221 0 -292 49q-70 49 -70 144q0 60 63 283q65 226 65 267q0 114 -176 154z" />
    <glyph glyph-name="uni007c" unicode="|" horiz-adv-x="451" 
d="M128 1410h180v-1445h-180v1445z" />
    <glyph glyph-name="uni007d" unicode="}" horiz-adv-x="713" 
d="M608 513v0q-159 -44 -203 -96t-69 -156l-80 -353q-48 -177 -188 -243q-107 -49 -340 -49l6 25q135 22 201 83q66 62 97 176l80 342q35 148 101 194t195 77l-39 14q-85 31 -107 63t-22 90q0 21 16 91q16 71 47 173q65 220 65 282q0 134 -176 157l6 25q225 0 301 -48
q77 -48 77 -144q0 -61 -65 -284q-63 -225 -63 -265q0 -115 160 -154z" />
    <glyph glyph-name="uni007e" unicode="~" horiz-adv-x="1167" 
d="M110 491q92 188 255 188q85 0 239 -72t197 -72q48 0 91 43q44 43 89 117l73 -144q-70 -108 -132 -148t-127 -40q-77 0 -211 72q-133 72 -226 72q-108 0 -175 -160z" />
    <glyph glyph-name="uni00A0" unicode="&#xa0;" horiz-adv-x="512" 
 />
    <glyph glyph-name="uni00a1" unicode="&#xa1;" horiz-adv-x="797" 
d="M659 859q0 -61 -43 -105q-44 -45 -106 -45q-63 0 -108 45q-46 44 -46 105q0 57 40 101q40 43 117 43q60 0 103 -42t43 -102zM393 557l62 -14q-100 -512 -113 -772q-7 -202 -168 -202q-52 0 -93 37q-42 37 -42 110q0 66 34 129q188 361 320 712z" />
    <glyph glyph-name="uni00a2" unicode="&#xa2;" 
d="M390 -28v0q-122 0 -213 81q-91 82 -91 241q0 232 183 446t389 214q39 0 70 -5v0l85 245v0h74l-94 -265v0q115 -53 115 -163q0 -55 -40 -94q-39 -38 -96 -38q-47 0 -73 19v0l-191 -548v0v0q124 2 245 177l57 -37q-91 -135 -175 -195q-83 -59 -172 -72v0v0l-98 -272v0h-70z
M439 117v0l257 742v0q0 27 -48 27q-99 0 -200 -203q-100 -202 -100 -372q0 -155 91 -194z" />
    <glyph glyph-name="uni00a3" unicode="&#xa3;" 
d="M258 307v0v0v0q12 112 41 331h-226l20 123h218v0q64 389 263 553q115 91 237 91q91 0 161 -46t70 -139q0 -50 -34 -93q-34 -42 -89 -42q-46 0 -79 30q-32 30 -32 74q0 24 5 58q8 35 8 43q0 45 -43 45q-94 0 -124 -162l-77 -412v0h225l-20 -123h-228q-35 -195 -153 -380v0
v0q160 -67 240 -67q89 0 126 30t66 93h53q-64 -336 -317 -336q-114 0 -248 123v0q-76 -121 -209 -121q-75 0 -127 50q-51 50 -51 123q0 68 51 122q52 54 140 54q63 0 133 -22zM232 184v0q-67 59 -135 59q-49 0 -76 -26q-26 -26 -26 -78q0 -36 31 -67q32 -31 81 -31
q98 0 125 143z" />
    <glyph glyph-name="uni00a4" unicode="&#xa4;" 
d="M-60 1092l118 115l198 -198v0q106 74 250 74v0q142 0 249 -74v0l199 198l118 -115l-201 -202v0q77 -112 77 -248v0q0 -155 -79 -253v0l203 -201l-118 -118l-195 200v0q-114 -76 -253 -76v0q-140 0 -253 76v0l-195 -200l-118 118l202 201v0q-78 105 -78 253v0
q0 144 77 248v0zM244 638q0 -110 75 -193q76 -82 183 -82q109 0 187 76q79 77 79 204q0 112 -75 191q-74 80 -185 80q-108 0 -186 -81t-78 -195z" />
    <glyph glyph-name="uni00a5" unicode="&#xa5;" 
d="M64 1325v51v0v0h574v-51q-108 0 -130 -20t-22 -52q0 -27 73 -242q70 -217 106 -301v0l260 391q57 86 57 145q0 79 -144 79v51h410v-51q-101 -19 -185 -142l-335 -483v0h280l-29 -102h-307v4v0l-43 -164v0h313l-29 -102h-315v0l-30 -119q-8 -31 -8 -79q0 -57 46 -73
q16 -6 118 -14v-51v0v0h-660v0v51q114 0 158 40q44 41 67 121l38 124v0h-292l29 102h292v0l44 159v0v1h-291l29 102h258v0l-157 472q-31 96 -66 121q-34 25 -109 32z" />
    <glyph glyph-name="uni00a6" unicode="&#xa6;" horiz-adv-x="451" 
d="M308 -35h-180v528h180v-528zM128 1405h180v-528h-180v528z" />
    <glyph glyph-name="uni00a7" unicode="&#xa7;" 
d="M581 254q123 -165 123 -270q0 -117 -97 -198t-242 -81q-129 0 -212 64q-82 64 -82 153q0 55 34 87t83 32q51 0 83 -27t32 -76t-38 -82t-38 -47q0 -25 43 -41t94 -16q73 0 128 40q56 41 56 115q0 60 -41 120q-40 61 -115 154l-129 154q-70 91 -98 152q-28 62 -28 123
q0 126 64 200q65 75 150 75q78 0 109 -14q-119 135 -119 265q0 115 82 196q83 81 225 81q132 0 210 -57q78 -56 78 -141q0 -59 -39 -91q-38 -31 -82 -31q-46 0 -79 29q-32 29 -32 73q0 42 38 73q38 30 38 43q0 17 -32 36t-94 19q-83 0 -127 -47q-44 -46 -44 -106
q0 -80 104 -209q211 -256 256 -332q46 -75 46 -163q0 -112 -74 -186t-164 -74q-42 0 -70 5zM284 707q0 -90 126 -251q126 -160 210 -160q51 0 86 37q36 38 36 92q0 91 -124 252q-123 161 -214 161q-55 0 -88 -39q-32 -39 -32 -92z" />
    <glyph glyph-name="uni00a8" unicode="&#xa8;" horiz-adv-x="682" 
d="M112 1201q0 59 38 98q39 39 95 39q55 0 94 -40t39 -97q0 -56 -39 -93q-39 -36 -96 -36q-54 0 -93 37q-38 38 -38 92zM538 1201q0 59 38 98q39 39 95 39q55 0 94 -40t39 -97q0 -56 -39 -93q-39 -36 -96 -36q-52 0 -92 36q-39 37 -39 93zM458 1056v0v0z" />
    <glyph glyph-name="uni00a9" unicode="&#xa9;" horiz-adv-x="1530" 
d="M1468 684q0 -296 -199 -505q-199 -208 -503 -208q-294 0 -498 209t-204 510q0 302 204 510t498 208q287 0 494 -204q208 -204 208 -520zM1344 690q0 256 -172 440q-172 185 -406 185q-235 0 -407 -188q-171 -187 -171 -442q0 -250 169 -436q169 -185 409 -185
q237 0 407 184q171 185 171 442zM1117 511l-35 -147q0 -22 -91 -50q-90 -27 -180 -27q-201 0 -324 103t-123 309q0 172 122 288q123 117 333 117q90 0 177 -24t87 -58v-142h-34q-32 182 -227 182q-132 0 -208 -91q-75 -90 -75 -261q0 -375 290 -375q176 0 251 176h37z" />
    <glyph glyph-name="uni00aa" unicode="&#xaa;" horiz-adv-x="545" 
d="M496 1319l25 68l156 8l-105 -315q-34 -107 -34 -148q0 -19 10 -19q20 0 92 88l29 -18q-108 -158 -204 -158q-38 0 -65 23t-27 59q0 34 14 78q-65 -102 -112 -131t-105 -29q-63 0 -100 46q-37 47 -37 108q0 143 118 284q118 142 247 142q69 0 98 -86zM197 978
q0 -61 45 -61q61 0 133 130q73 130 73 244q0 59 -39 59q-75 0 -144 -154q-68 -153 -68 -218z" />
    <glyph glyph-name="uni00ab" unicode="&#xab;" 
d="M655 455l83 -180q61 -134 61 -176v0q0 -33 -27 -33q-15 0 -53 44q-85 96 -320 340v19q397 280 470 342q44 39 59 39q31 0 31 -28v0q0 -44 -105 -154zM271 455l83 -180q61 -134 61 -176v0q0 -33 -27 -33q-15 0 -53 44q-85 96 -320 340v19q397 280 470 342q44 39 59 39
q31 0 31 -28v0q0 -48 -74 -124z" />
    <glyph glyph-name="uni00ac" unicode="&#xac;" horiz-adv-x="1241" 
d="M112 835h1040v-612h-180v432h-860v180z" />
    <glyph glyph-name="uni00ad" unicode="&#xad;" horiz-adv-x="682" 
d="M5 337l47 237h497l-47 -237h-497z" />
    <glyph glyph-name="uni00ae" unicode="&#xae;" horiz-adv-x="1530" 
d="M64 690q0 297 202 507q203 211 500 211q296 0 499 -211t203 -513q0 -296 -199 -505q-199 -208 -503 -208q-294 0 -498 209t-204 510zM188 685q0 -248 169 -435q169 -186 409 -186q239 0 408 184q170 185 170 442q0 261 -172 443t-406 182q-235 0 -407 -185
q-171 -185 -171 -445zM428 343l49 7q47 6 47 69v20v509v24q0 64 -45 70l-51 7v34h355q132 0 196 -53q64 -52 64 -138q0 -78 -45 -137q-44 -58 -121 -80v0l146 -194q75 -106 132 -149v-23h-143q-41 0 -102 102q-74 120 -148 242h-92v-214v-23q0 -56 43 -64l53 -9v-34h-338v34
zM670 695h83q144 0 144 188q0 158 -146 158h-81v-346z" />
    <glyph glyph-name="uni00af" unicode="&#xaf;" 
d="M177 1645h1024v-103h-1024v103z" />
    <glyph glyph-name="uni00b0" unicode="&#xb0;" horiz-adv-x="819" 
d="M176 1107q0 128 87 213t212 85q122 0 208 -84q87 -84 87 -207q0 -127 -86 -214q-85 -87 -213 -87q-130 0 -213 86q-82 86 -82 208zM258 1107q0 -85 62 -150q63 -64 150 -64q94 0 156 64q62 65 62 154q0 86 -63 150q-62 64 -150 64q-91 0 -154 -64q-63 -63 -63 -154z" />
    <glyph glyph-name="uni00b1" unicode="&#xb1;" horiz-adv-x="1167" 
d="M64 180h1044v-180h-1044v180zM64 744h432v304h180v-304h432v-180h-432v-304h-180v304h-432v180z" />
    <glyph glyph-name="uni00b2" unicode="&#xb2;" horiz-adv-x="614" 
d="M195 702v-1h195q72 0 106 20q35 21 71 79h32l-105 -240h-491v33l274 262q180 173 180 285q0 74 -34 107q-33 33 -90 33q-49 0 -88 -26t-82 -74l-38 22q100 202 297 202q101 0 161 -62q60 -61 60 -141q0 -139 -193 -293l-255 -206v0z" />
    <glyph glyph-name="uni00b3" unicode="&#xb3;" horiz-adv-x="614" 
d="M230 1017q243 43 243 177q0 53 -31 79q-30 27 -70 27q-84 0 -160 -88l-29 26q109 166 279 166q83 0 140 -48q57 -47 57 -123q0 -113 -163 -183v0q108 -67 108 -189q0 -128 -117 -224q-116 -95 -265 -95q-187 0 -187 102q0 43 21 66q22 24 50 24q34 0 62 -35t59 -69
q17 -20 58 -20q58 0 102 53q45 54 45 135q0 191 -205 191v0z" />
    <glyph glyph-name="uni00b4" unicode="&#xb4;" horiz-adv-x="682" 
d="M388 1056h-100l271 285q30 33 59 58t70 25q38 0 67 -29t29 -69q0 -49 -96 -102zM472 1056v0v0z" />
    <glyph glyph-name="uni00b5" unicode="&#xb5;" horiz-adv-x="1180" 
d="M263 912h272l-187 -615q-21 -67 -21 -100q0 -54 43 -54q50 0 147 117q103 135 157 303l108 349h277l-194 -624q-28 -92 -28 -112q0 -30 29 -30q34 0 123 128l43 -33q-120 -171 -193 -221q-73 -49 -144 -49q-62 0 -97 40t-35 96q0 57 16 133q-141 -240 -255 -240
q-69 0 -133 49q-47 -138 -47 -298q0 -70 -48 -119q-48 -48 -111 -48q-106 0 -106 125q0 63 46 172q71 164 106 279z" />
    <glyph glyph-name="uni00b6" unicode="&#xb6;" 
d="M680 -400h-344l478 1725h-113l-478 -1725h-344l14 51q112 0 144 27q33 28 54 106l205 741q-289 0 -289 283q0 195 118 381q118 187 442 187h605l-14 -51q-85 -4 -131 -25q-45 -20 -70 -119l-371 -1321q-38 -132 -38 -155q0 -30 53 -42t93 -12zM311 576l208 749
q-193 -39 -273 -202q-79 -163 -79 -316q0 -71 37 -140t107 -91z" />
    <glyph glyph-name="uni00b8" unicode="&#xb8;" horiz-adv-x="682" 
d="M-160 -386l46 63q74 -29 138 -29q109 0 109 86q0 71 -98 71q-27 0 -58 -8l-25 24l133 195h92l-92 -132q28 4 51 4q74 0 129 -39q55 -38 55 -104q0 -86 -76 -133t-188 -47q-93 0 -216 49zM192 0v0v0z" />
    <glyph glyph-name="uni00b9" unicode="&#xb9;" horiz-adv-x="614" 
d="M61 560v39q128 0 157 94l145 462q27 84 27 107q0 41 -55 41q-6 0 -85 -6l3 39q173 26 368 68v0l-206 -670q-16 -56 -16 -82q0 -31 22 -42q23 -11 100 -11v-39h-460z" />
    <glyph glyph-name="uni00ba" unicode="&#xba;" horiz-adv-x="614" 
d="M112 1009q0 148 118 272t273 124q72 0 138 -46q67 -46 67 -138q0 -155 -117 -276q-116 -120 -267 -120q-102 0 -157 55t-55 129zM276 944q0 -78 64 -78q82 0 143 163q61 164 61 263q0 72 -51 72q-81 0 -149 -147t-68 -273z" />
    <glyph glyph-name="uni00bb" unicode="&#xbb;" 
d="M328 461l-83 180q-61 134 -61 176v0q0 33 27 33q15 0 53 -44q85 -96 320 -340v-19q-397 -280 -470 -342q-44 -39 -59 -39q-31 0 -31 28v0q0 44 105 154zM712 461l-83 180q-61 134 -61 176v0q0 33 27 33q15 0 53 -44q85 -96 320 -340v-19q-397 -280 -470 -342
q-44 -39 -59 -39q-31 0 -31 28v0q0 48 74 124z" />
    <glyph glyph-name="uni00bc" unicode="&#xbc;" horiz-adv-x="1536" 
d="M14 560v39q128 0 157 94l145 462q27 84 27 107q0 41 -55 41q-6 0 -85 -6l3 39q173 26 368 68v0l-206 -670q-16 -56 -16 -82q0 -31 22 -42q23 -11 100 -11v-39h-460zM273 -29l889 1434h119v-6l-889 -1428h-119zM1115 183v0h-334v0l33 136l578 522v0h93v0l-158 -534v0h91v0
l-35 -124h-88v0l-60 -186v0h-175v0zM1151 307v0l104 349l-381 -349v0h277z" />
    <glyph glyph-name="uni00bd" unicode="&#xbd;" horiz-adv-x="1536" 
d="M-19 560v39q128 0 157 94l145 462q27 84 27 107q0 41 -55 41q-6 0 -85 -6l3 39q173 26 368 68v0l-206 -670q-16 -56 -16 -82q0 -31 22 -42q23 -11 100 -11v-39h-460zM242 -29l889 1434h119v-6l-889 -1428h-119zM1035 141v-1h195q72 0 106 20q35 21 71 79h32l-105 -240
h-491v33l274 262q180 173 180 285q0 74 -34 107q-33 33 -90 33q-49 0 -88 -26t-82 -74l-38 22q100 202 297 202q101 0 161 -62q60 -61 60 -141q0 -139 -193 -293l-255 -206v0z" />
    <glyph glyph-name="uni00be" unicode="&#xbe;" horiz-adv-x="1536" 
d="M210 1017q243 43 243 177q0 53 -31 79q-30 27 -70 27q-84 0 -160 -88l-29 26q109 166 279 166q83 0 140 -48q57 -47 57 -123q0 -113 -163 -183v0q108 -67 108 -189q0 -128 -117 -224q-116 -95 -265 -95q-187 0 -187 102q0 43 21 66q22 24 50 24q34 0 62 -35t59 -69
q17 -20 58 -20q58 0 102 53q45 54 45 135q0 191 -205 191v0zM283 -29l889 1434h119v-6l-889 -1428h-119zM1125 183v0h-334v0l33 136l578 522v0h93v0l-158 -534v0h91v0l-35 -124h-88v0l-60 -186v0h-175v0zM1161 307v0l104 349l-381 -349v0h277z" />
    <glyph glyph-name="uni00bf" unicode="&#xbf;" 
d="M639 1017q60 0 103 -42t43 -102q0 -61 -43 -105q-44 -45 -106 -45q-63 0 -108 45q-46 44 -46 105q0 57 40 101q40 43 117 43zM543 563l62 -14q-8 -156 -137 -319q-175 -215 -201 -283q-26 -69 -26 -142q0 -167 146 -167q45 0 85 22q40 21 40 53q0 15 -31 58t-31 86
q0 50 37 85q36 34 88 34q53 0 90 -38q36 -39 36 -95q0 -108 -95 -187q-96 -80 -257 -80q-178 0 -273 83t-95 214q0 127 84 214q83 86 255 193q122 81 155 137q33 55 68 146z" />
    <glyph glyph-name="uni00c0" unicode="&#xc0;" horiz-adv-x="1366" 
d="M792 1405v0h52l194 -1169q18 -110 42 -143q25 -32 132 -42v-51h-621v51q70 0 115 24t45 95q0 37 -4 66l-27 194v0h-436v0l-119 -210q-33 -57 -33 -95q0 -74 132 -74v-51v0h-400v51q52 10 88 43q37 34 82 104zM331 512v0h375v0l-74 498v0zM812 1492v0v0zM738 0v0v0z
M0 1412v0v0zM887 1492l-251 166q-89 59 -89 114q0 30 27 59q28 29 67 29q59 0 118 -78l220 -290h-92zM812 1492v0v0z" />
    <glyph glyph-name="uni00c1" unicode="&#xc1;" horiz-adv-x="1366" 
d="M792 1405v0h52l194 -1169q18 -110 42 -143q25 -32 132 -42v-51h-621v51q70 0 115 24t45 95q0 37 -4 66l-27 194v0h-436v0l-119 -210q-33 -57 -33 -95q0 -74 132 -74v-51v0h-400v51q52 10 88 43q37 34 82 104zM331 512v0h375v0l-74 498v0zM812 1492v0v0zM738 0v0v0z
M0 1412v0v0zM728 1492h-100l271 285q30 33 59 58t70 25q38 0 67 -29t29 -69q0 -49 -96 -102zM812 1492v0v0z" />
    <glyph glyph-name="uni00c2" unicode="&#xc2;" horiz-adv-x="1366" 
d="M792 1405v0h52l194 -1169q18 -110 42 -143q25 -32 132 -42v-51h-621v51q70 0 115 24t45 95q0 37 -4 66l-27 194v0h-436v0l-119 -210q-33 -57 -33 -95q0 -74 132 -74v-51v0h-400v51q52 10 88 43q37 34 82 104zM331 512v0h375v0l-74 498v0zM812 1492v0v0zM738 0v0v0z
M0 1412v0v0zM468 1492l336 352h166l176 -352h-104l-180 193v0l-278 -193h-116zM812 1492v0v0z" />
    <glyph glyph-name="uni00c3" unicode="&#xc3;" horiz-adv-x="1366" 
d="M792 1405v0h52l194 -1169q18 -110 42 -143q25 -32 132 -42v-51h-621v51q70 0 115 24t45 95q0 37 -4 66l-27 194v0h-436v0l-119 -210q-33 -57 -33 -95q0 -74 132 -74v-51v0h-400v51q52 10 88 43q37 34 82 104zM331 512v0h375v0l-74 498v0zM812 1492v0v0zM738 0v0v0z
M0 1412v0v0zM486 1534q53 245 246 245q56 0 167 -46q111 -45 136 -45q33 0 56 17t51 74h83q-64 -245 -238 -245q-58 0 -167 45q-108 46 -147 46q-68 0 -104 -91h-83zM812 1492v0v0z" />
    <glyph glyph-name="uni00c4" unicode="&#xc4;" horiz-adv-x="1366" 
d="M792 1405v0h52l194 -1169q18 -110 42 -143q25 -32 132 -42v-51h-621v51q70 0 115 24t45 95q0 37 -4 66l-27 194v0h-436v0l-119 -210q-33 -57 -33 -95q0 -74 132 -74v-51v0h-400v51q52 10 88 43q37 34 82 104zM331 512v0h375v0l-74 498v0zM812 1492v0v0zM738 0v0v0z
M0 1412v0v0zM466 1637q0 59 38 98q39 39 95 39q55 0 94 -40t39 -97q0 -56 -39 -93q-39 -36 -96 -36q-54 0 -93 37q-38 38 -38 92zM892 1637q0 59 38 98q39 39 95 39q55 0 94 -40t39 -97q0 -56 -39 -93q-39 -36 -96 -36q-52 0 -92 36q-39 37 -39 93zM812 1492v0v0z" />
    <glyph glyph-name="uni00c5" unicode="&#xc5;" horiz-adv-x="1366" 
d="M792 1405v0h52l194 -1169q18 -110 42 -143q25 -32 132 -42v-51h-621v51q70 0 115 24t45 95q0 37 -4 66l-27 194v0h-436v0l-119 -210q-33 -57 -33 -95q0 -74 132 -74v-51v0h-400v51q52 10 88 43q37 34 82 104zM331 512v0h375v0l-74 498v0zM812 1492v0v0zM738 0v0v0z
M0 1412v0v0zM596 1676q0 90 63 155t153 65t155 -65t65 -155t-65 -153t-155 -63t-153 63t-63 153zM696 1677q0 -49 34 -83t83 -34q48 0 83 35q36 35 36 84q0 48 -36 82q-35 35 -83 35q-49 0 -83 -36q-34 -35 -34 -83zM812 1492v0v0z" />
    <glyph glyph-name="uni00c6" unicode="&#xc6;" horiz-adv-x="1933" 
d="M-132 51q61 16 94 52q33 37 120 150l691 886q71 92 71 129q0 26 -34 41q-34 16 -131 16v51v0h1202l-94 -384l-47 10v0q0 176 -84 242q-83 66 -246 66q-52 0 -84 -10q-32 -9 -48 -71l-131 -467q210 0 278 53q68 54 118 171l56 -8l-151 -570l-51 10q9 93 9 98
q0 111 -69 145q-69 35 -204 35v0l-125 -470q-16 -63 -16 -89q0 -71 105 -71q231 0 355 78q124 79 232 256l56 -6l-128 -394h-1072v0v51q93 11 118 49q26 39 47 111l89 313h-392v0l-219 -304q-43 -61 -43 -98q0 -63 128 -71v-51v0h-400v51zM465 604v0h348l187 686v0h-26z" />
    <glyph glyph-name="uni00c7" unicode="&#xc7;" horiz-adv-x="1366" 
d="M1120 316l61 -45q-203 -307 -558 -307q-240 0 -399 144q-158 145 -158 393q0 359 244 635t589 276q125 0 222 -32q98 -32 127 -32q26 0 42 14q17 14 38 50h61l-103 -480l-66 12v83q0 153 -71 233t-198 80q-225 0 -398 -300q-172 -299 -172 -601q0 -180 82 -274
q83 -93 221 -93q241 0 436 244zM1001 1492v0v0zM541 0v0v0zM189 -386l46 63q74 -29 138 -29q109 0 109 86q0 71 -98 71q-27 0 -58 -8l-25 24l133 195h92l-92 -132q28 4 51 4q74 0 129 -39q55 -38 55 -104q0 -86 -76 -133t-188 -47q-93 0 -216 49zM541 0v0v0z" />
    <glyph glyph-name="uni00c8" unicode="&#xc8;" horiz-adv-x="1366" 
d="M-56 0v0v51q96 10 122 53q26 44 43 101l247 919q20 77 20 118q0 52 -40 66q-40 15 -105 17v51h1097l-89 -384l-52 10v0q0 197 -96 252q-96 56 -290 56q-64 0 -87 -22q-22 -21 -34 -66l-120 -460l86 1q162 5 205 44t81 109l36 70l56 -8l-151 -570l-56 10q5 50 5 90
q0 136 -60 162q-59 26 -180 26h-36l-126 -439q-28 -101 -28 -120q0 -71 134 -71q426 0 614 334l52 -10l-128 -390h-1120zM814 1492v0v0zM838 0v0v0zM0 1412v0v0zM889 1492l-251 166q-89 59 -89 114q0 30 27 59q28 29 67 29q59 0 118 -78l220 -290h-92zM814 1492v0v0z" />
    <glyph glyph-name="uni00c9" unicode="&#xc9;" horiz-adv-x="1366" 
d="M-56 0v0v51q96 10 122 53q26 44 43 101l247 919q20 77 20 118q0 52 -40 66q-40 15 -105 17v51h1097l-89 -384l-52 10v0q0 197 -96 252q-96 56 -290 56q-64 0 -87 -22q-22 -21 -34 -66l-120 -460l86 1q162 5 205 44t81 109l36 70l56 -8l-151 -570l-56 10q5 50 5 90
q0 136 -60 162q-59 26 -180 26h-36l-126 -439q-28 -101 -28 -120q0 -71 134 -71q426 0 614 334l52 -10l-128 -390h-1120zM814 1492v0v0zM838 0v0v0zM0 1412v0v0zM730 1492h-100l271 285q30 33 59 58t70 25q38 0 67 -29t29 -69q0 -49 -96 -102zM814 1492v0v0z" />
    <glyph glyph-name="uni00ca" unicode="&#xca;" horiz-adv-x="1366" 
d="M-56 0v0v51q96 10 122 53q26 44 43 101l247 919q20 77 20 118q0 52 -40 66q-40 15 -105 17v51h1097l-89 -384l-52 10v0q0 197 -96 252q-96 56 -290 56q-64 0 -87 -22q-22 -21 -34 -66l-120 -460l86 1q162 5 205 44t81 109l36 70l56 -8l-151 -570l-56 10q5 50 5 90
q0 136 -60 162q-59 26 -180 26h-36l-126 -439q-28 -101 -28 -120q0 -71 134 -71q426 0 614 334l52 -10l-128 -390h-1120zM814 1492v0v0zM838 0v0v0zM0 1412v0v0zM470 1492l336 352h166l176 -352h-104l-180 193v0l-278 -193h-116zM814 1492v0v0z" />
    <glyph glyph-name="uni00cb" unicode="&#xcb;" horiz-adv-x="1366" 
d="M-56 0v0v51q96 10 122 53q26 44 43 101l247 919q20 77 20 118q0 52 -40 66q-40 15 -105 17v51h1097l-89 -384l-52 10v0q0 197 -96 252q-96 56 -290 56q-64 0 -87 -22q-22 -21 -34 -66l-120 -460l86 1q162 5 205 44t81 109l36 70l56 -8l-151 -570l-56 10q5 50 5 90
q0 136 -60 162q-59 26 -180 26h-36l-126 -439q-28 -101 -28 -120q0 -71 134 -71q426 0 614 334l52 -10l-128 -390h-1120zM814 1492v0v0zM838 0v0v0zM0 1412v0v0zM468 1637q0 59 38 98q39 39 95 39q55 0 94 -40t39 -97q0 -56 -39 -93q-39 -36 -96 -36q-54 0 -93 37
q-38 38 -38 92zM894 1637q0 59 38 98q39 39 95 39q55 0 94 -40t39 -97q0 -56 -39 -93q-39 -36 -96 -36q-52 0 -92 36q-39 37 -39 93zM814 1492v0v0z" />
    <glyph glyph-name="uni00cc" unicode="&#xcc;" horiz-adv-x="797" 
d="M-66 0v0v51q54 6 95 31q42 26 65 113l252 914q25 91 25 141q0 29 -20 45q-20 17 -130 30v51h608v-51q-71 -7 -109 -39q-37 -31 -57 -105l-252 -941q-16 -61 -16 -101q0 -84 147 -88v-51h-608zM546 1489v0v0zM256 0v0v0zM0 1409v0v0zM621 1489l-251 166q-89 59 -89 114
q0 30 27 59q28 29 67 29q59 0 118 -78l220 -290h-92zM546 1489v0v0z" />
    <glyph glyph-name="uni00cd" unicode="&#xcd;" horiz-adv-x="797" 
d="M-66 0v0v51q54 6 95 31q42 26 65 113l252 914q25 91 25 141q0 29 -20 45q-20 17 -130 30v51h608v-51q-71 -7 -109 -39q-37 -31 -57 -105l-252 -941q-16 -61 -16 -101q0 -84 147 -88v-51h-608zM546 1489v0v0zM256 0v0v0zM0 1409v0v0zM462 1489h-100l271 285q30 33 59 58
t70 25q38 0 67 -29t29 -69q0 -49 -96 -102zM546 1489v0v0z" />
    <glyph glyph-name="uni00ce" unicode="&#xce;" horiz-adv-x="797" 
d="M-66 0v0v51q54 6 95 31q42 26 65 113l252 914q25 91 25 141q0 29 -20 45q-20 17 -130 30v51h608v-51q-71 -7 -109 -39q-37 -31 -57 -105l-252 -941q-16 -61 -16 -101q0 -84 147 -88v-51h-608zM546 1489v0v0zM256 0v0v0zM0 1409v0v0zM202 1489l336 352h166l176 -352h-104
l-180 193v0l-278 -193h-116zM546 1489v0v0z" />
    <glyph glyph-name="uni00cf" unicode="&#xcf;" horiz-adv-x="797" 
d="M-66 0v0v51q54 6 95 31q42 26 65 113l252 914q25 91 25 141q0 29 -20 45q-20 17 -130 30v51h608v-51q-71 -7 -109 -39q-37 -31 -57 -105l-252 -941q-16 -61 -16 -101q0 -84 147 -88v-51h-608zM546 1489v0v0zM256 0v0v0zM0 1409v0v0zM200 1634q0 59 38 98q39 39 95 39
q55 0 94 -40t39 -97q0 -56 -39 -93q-39 -36 -96 -36q-54 0 -93 37q-38 38 -38 92zM626 1634q0 59 38 98q39 39 95 39q55 0 94 -40t39 -97q0 -56 -39 -93q-39 -36 -96 -36q-52 0 -92 36q-39 37 -39 93zM546 1489v0v0z" />
    <glyph glyph-name="uni00d0" unicode="&#xd0;" horiz-adv-x="1479" 
d="M249 764v0l86 313q36 131 36 165q0 42 -26 56q-26 15 -124 27v51h599q301 0 459 -151q159 -150 159 -419q0 -334 -254 -570t-668 -236h-582v0v51q87 11 116 49q30 38 49 104l125 470v0h-205l24 90h206zM554 764v0h244l-24 -90h-246v0l-98 -372q-12 -48 -26 -95t-14 -65
q0 -41 26 -59q27 -17 99 -17q294 0 458 260t164 605q0 379 -334 379q-72 0 -94 -25t-32 -62z" />
    <glyph glyph-name="uni00d1" unicode="&#xd1;" horiz-adv-x="1479" 
d="M-56 0v0v51q87 18 120 78q34 61 73 194l259 888q-33 70 -69 92t-101 22v51h400l444 -960v0l177 637q25 89 25 151q0 108 -165 121v51h428v-51q-103 -17 -136 -95q-33 -77 -61 -177l-306 -1089h-56l-529 1131v0l-208 -746q-32 -119 -32 -172q0 -65 44 -96q44 -30 121 -30
v-51h-428zM882 1492v0v0zM578 0v0v0zM0 1412v0v0zM556 1534q53 245 246 245q56 0 167 -46q111 -45 136 -45q33 0 56 17t51 74h83q-64 -245 -238 -245q-58 0 -167 45q-108 46 -147 46q-68 0 -104 -91h-83zM882 1492v0v0z" />
    <glyph glyph-name="uni00d2" unicode="&#xd2;" horiz-adv-x="1479" 
d="M56 433q0 367 261 673t619 306q209 0 351 -135q142 -134 142 -363q0 -327 -268 -639q-268 -311 -606 -311q-229 0 -364 135q-135 136 -135 334zM357 305q0 -271 208 -271q230 0 396 384q167 385 167 669q0 118 -58 186q-57 69 -153 69q-243 0 -402 -397
q-158 -397 -158 -640zM914 1492v0v0zM989 1492l-251 166q-89 59 -89 114q0 30 27 59q28 29 67 29q59 0 118 -78l220 -290h-92zM914 1492v0v0z" />
    <glyph glyph-name="uni00d3" unicode="&#xd3;" horiz-adv-x="1479" 
d="M56 433q0 367 261 673t619 306q209 0 351 -135q142 -134 142 -363q0 -327 -268 -639q-268 -311 -606 -311q-229 0 -364 135q-135 136 -135 334zM357 305q0 -271 208 -271q230 0 396 384q167 385 167 669q0 118 -58 186q-57 69 -153 69q-243 0 -402 -397
q-158 -397 -158 -640zM914 1492v0v0zM830 1492h-100l271 285q30 33 59 58t70 25q38 0 67 -29t29 -69q0 -49 -96 -102zM914 1492v0v0z" />
    <glyph glyph-name="uni00d4" unicode="&#xd4;" horiz-adv-x="1479" 
d="M56 433q0 367 261 673t619 306q209 0 351 -135q142 -134 142 -363q0 -327 -268 -639q-268 -311 -606 -311q-229 0 -364 135q-135 136 -135 334zM357 305q0 -271 208 -271q230 0 396 384q167 385 167 669q0 118 -58 186q-57 69 -153 69q-243 0 -402 -397
q-158 -397 -158 -640zM914 1492v0v0zM570 1492l336 352h166l176 -352h-104l-180 193v0l-278 -193h-116zM914 1492v0v0z" />
    <glyph glyph-name="uni00d5" unicode="&#xd5;" horiz-adv-x="1479" 
d="M56 433q0 367 261 673t619 306q209 0 351 -135q142 -134 142 -363q0 -327 -268 -639q-268 -311 -606 -311q-229 0 -364 135q-135 136 -135 334zM357 305q0 -271 208 -271q230 0 396 384q167 385 167 669q0 118 -58 186q-57 69 -153 69q-243 0 -402 -397
q-158 -397 -158 -640zM914 1492v0v0zM588 1534q53 245 246 245q56 0 167 -46q111 -45 136 -45q33 0 56 17t51 74h83q-64 -245 -238 -245q-58 0 -167 45q-108 46 -147 46q-68 0 -104 -91h-83zM914 1492v0v0z" />
    <glyph glyph-name="uni00d6" unicode="&#xd6;" horiz-adv-x="1479" 
d="M56 433q0 367 261 673t619 306q209 0 351 -135q142 -134 142 -363q0 -327 -268 -639q-268 -311 -606 -311q-229 0 -364 135q-135 136 -135 334zM357 305q0 -271 208 -271q230 0 396 384q167 385 167 669q0 118 -58 186q-57 69 -153 69q-243 0 -402 -397
q-158 -397 -158 -640zM914 1492v0v0zM568 1637q0 59 38 98q39 39 95 39q55 0 94 -40t39 -97q0 -56 -39 -93q-39 -36 -96 -36q-54 0 -93 37q-38 38 -38 92zM994 1637q0 59 38 98q39 39 95 39q55 0 94 -40t39 -97q0 -56 -39 -93q-39 -36 -96 -36q-52 0 -92 36q-39 37 -39 93z
M914 1492v0v0z" />
    <glyph glyph-name="uni00d7" unicode="&#xd7;" horiz-adv-x="1167" 
d="M223 36l-127 127l361 361v0l-361 361l127 127l361 -361v0l361 361l127 -127l-361 -361v0l361 -361l-127 -127l-361 361v0z" />
    <glyph glyph-name="uni00d8" unicode="&#xd8;" horiz-adv-x="1479" 
d="M1095 1386v0l112 188h99l-129 -223v0q247 -128 247 -434q0 -350 -267 -652q-266 -301 -612 -301q-88 0 -168 29v0l-142 -248h-99l161 280v0q-96 45 -169 155q-72 110 -72 247q0 369 260 677q261 308 607 308q91 0 172 -26zM1045 1298v0q-51 44 -134 44q-234 0 -397 -394
q-162 -393 -162 -639q0 -91 24 -149v0zM1099 1218v0l-672 -1138v0q54 -46 138 -46q233 0 398 400t165 646q0 80 -29 138z" />
    <glyph glyph-name="uni00d9" unicode="&#xd9;" horiz-adv-x="1479" 
d="M202 1325v51h640v-51q-103 0 -141 -38t-57 -104l-202 -743q-24 -91 -24 -150q0 -211 258 -211q135 0 237 90q102 91 187 389l130 465q35 125 35 185q0 104 -169 117v51h432v-51q-79 -16 -114 -59q-35 -42 -90 -232l-153 -531q-84 -291 -214 -415t-364 -124
q-195 0 -326 96t-131 248q0 92 37 231l161 616q6 22 10 45q4 24 4 43q0 42 -22 55q-22 14 -124 27zM924 1492v0v0zM674 0v0v0zM0 1412v0v0zM999 1492l-251 166q-89 59 -89 114q0 30 27 59q28 29 67 29q59 0 118 -78l220 -290h-92zM924 1492v0v0z" />
    <glyph glyph-name="uni00da" unicode="&#xda;" horiz-adv-x="1479" 
d="M202 1325v51h640v-51q-103 0 -141 -38t-57 -104l-202 -743q-24 -91 -24 -150q0 -211 258 -211q135 0 237 90q102 91 187 389l130 465q35 125 35 185q0 104 -169 117v51h432v-51q-79 -16 -114 -59q-35 -42 -90 -232l-153 -531q-84 -291 -214 -415t-364 -124
q-195 0 -326 96t-131 248q0 92 37 231l161 616q6 22 10 45q4 24 4 43q0 42 -22 55q-22 14 -124 27zM924 1492v0v0zM674 0v0v0zM0 1412v0v0zM840 1492h-100l271 285q30 33 59 58t70 25q38 0 67 -29t29 -69q0 -49 -96 -102zM924 1492v0v0z" />
    <glyph glyph-name="uni00db" unicode="&#xdb;" horiz-adv-x="1479" 
d="M202 1325v51h640v-51q-103 0 -141 -38t-57 -104l-202 -743q-24 -91 -24 -150q0 -211 258 -211q135 0 237 90q102 91 187 389l130 465q35 125 35 185q0 104 -169 117v51h432v-51q-79 -16 -114 -59q-35 -42 -90 -232l-153 -531q-84 -291 -214 -415t-364 -124
q-195 0 -326 96t-131 248q0 92 37 231l161 616q6 22 10 45q4 24 4 43q0 42 -22 55q-22 14 -124 27zM924 1492v0v0zM674 0v0v0zM0 1412v0v0zM580 1492l336 352h166l176 -352h-104l-180 193v0l-278 -193h-116zM924 1492v0v0z" />
    <glyph glyph-name="uni00dc" unicode="&#xdc;" horiz-adv-x="1479" 
d="M202 1325v51h640v-51q-103 0 -141 -38t-57 -104l-202 -743q-24 -91 -24 -150q0 -211 258 -211q135 0 237 90q102 91 187 389l130 465q35 125 35 185q0 104 -169 117v51h432v-51q-79 -16 -114 -59q-35 -42 -90 -232l-153 -531q-84 -291 -214 -415t-364 -124
q-195 0 -326 96t-131 248q0 92 37 231l161 616q6 22 10 45q4 24 4 43q0 42 -22 55q-22 14 -124 27zM924 1492v0v0zM674 0v0v0zM0 1412v0v0zM578 1637q0 59 38 98q39 39 95 39q55 0 94 -40t39 -97q0 -56 -39 -93q-39 -36 -96 -36q-54 0 -93 37q-38 38 -38 92zM1004 1637
q0 59 38 98q39 39 95 39q55 0 94 -40t39 -97q0 -56 -39 -93q-39 -36 -96 -36q-52 0 -92 36q-39 37 -39 93zM924 1492v0v0z" />
    <glyph glyph-name="uni00dd" unicode="&#xdd;" horiz-adv-x="1251" 
d="M151 0v51q107 9 145 36q38 28 65 126l119 432l-177 543q-15 47 -37 86q-21 40 -115 51v51v0h578v-51q-34 0 -90 -13q-56 -12 -56 -59q0 -41 21 -103l139 -424v0l263 376q34 49 46 75t12 68q0 35 -30 57q-29 23 -111 23v51h428v-51q-99 -19 -184 -143l-390 -548l-105 -387
q-18 -69 -18 -103q0 -58 41 -76q41 -17 114 -17v-51v0h-658zM817 1492v0v0zM0 1412v0v0zM733 1492h-100l271 285q30 33 59 58t70 25q38 0 67 -29t29 -69q0 -49 -96 -102zM817 1492v0v0z" />
    <glyph glyph-name="uni00de" unicode="&#xde;" horiz-adv-x="1251" 
d="M449 383l-27 -123q-22 -104 -22 -118q0 -54 37 -73q38 -18 109 -18v-51h-602v51q77 10 110 47q34 37 55 113l249 902q23 84 23 125q0 50 -30 63t-120 24v51h608v-51q-65 0 -108 -31q-42 -31 -63 -97l-30 -100h105q433 0 433 -325q0 -183 -153 -291t-387 -108
q-93 0 -187 10zM469 449q57 -4 86 -4q178 0 249 119t71 275q0 192 -172 192q-59 0 -77 -26q-17 -25 -29 -70z" />
    <glyph glyph-name="uni00df" unicode="&#xdf;" 
d="M486 779l16 76q26 2 39 2q81 0 140 113t59 281q0 116 -97 116q-133 0 -205 -319l-192 -837q-138 -620 -464 -620q-71 0 -132 42q-60 43 -60 113q0 60 31 88q32 29 82 29q42 0 66 -26t24 -70q0 -35 -18 -58q-17 -22 -17 -32q0 -24 33 -24q69 0 103 76q35 76 64 208
l208 898q64 297 193 445q129 149 310 149q128 0 212 -74q85 -74 85 -187q0 -235 -375 -358q295 -53 295 -299q0 -197 -136 -361q-135 -164 -308 -164q-92 0 -157 45l39 72q37 -47 96 -47q90 0 157 188t67 351q0 130 -57 157q-56 27 -101 27z" />
    <glyph glyph-name="uni00e0" unicode="&#xe0;" 
d="M514 227q-106 -162 -180 -209q-73 -47 -155 -47q-104 0 -163 70t-59 199q0 224 183 462q184 239 371 239q76 0 117 -49q42 -49 42 -95l39 118l226 14l-174 -579q-41 -137 -41 -201q0 -35 29 -35q38 0 143 142l43 -30q-164 -258 -306 -258q-57 0 -98 37q-41 38 -41 97
q0 38 24 125zM215 235q0 -58 26 -88q27 -30 62 -30q103 0 211 227q109 228 109 403q0 107 -77 107q-108 0 -220 -236q-111 -236 -111 -383zM633 1053v0v0zM755 0v0v0zM708 1053l-251 166q-89 59 -89 114q0 30 27 59q28 29 67 29q59 0 118 -78l220 -290h-92zM633 1053v0v0z
" />
    <glyph glyph-name="uni00e1" unicode="&#xe1;" 
d="M514 227q-106 -162 -180 -209q-73 -47 -155 -47q-104 0 -163 70t-59 199q0 224 183 462q184 239 371 239q76 0 117 -49q42 -49 42 -95l39 118l226 14l-174 -579q-41 -137 -41 -201q0 -35 29 -35q38 0 143 142l43 -30q-164 -258 -306 -258q-57 0 -98 37q-41 38 -41 97
q0 38 24 125zM215 235q0 -58 26 -88q27 -30 62 -30q103 0 211 227q109 228 109 403q0 107 -77 107q-108 0 -220 -236q-111 -236 -111 -383zM633 1053v0v0zM755 0v0v0zM549 1053h-100l271 285q30 33 59 58t70 25q38 0 67 -29t29 -69q0 -49 -96 -102zM633 1053v0v0z" />
    <glyph glyph-name="uni00e2" unicode="&#xe2;" 
d="M514 227q-106 -162 -180 -209q-73 -47 -155 -47q-104 0 -163 70t-59 199q0 224 183 462q184 239 371 239q76 0 117 -49q42 -49 42 -95l39 118l226 14l-174 -579q-41 -137 -41 -201q0 -35 29 -35q38 0 143 142l43 -30q-164 -258 -306 -258q-57 0 -98 37q-41 38 -41 97
q0 38 24 125zM215 235q0 -58 26 -88q27 -30 62 -30q103 0 211 227q109 228 109 403q0 107 -77 107q-108 0 -220 -236q-111 -236 -111 -383zM633 1053v0v0zM755 0v0v0zM289 1053l336 352h166l176 -352h-104l-180 193v0l-278 -193h-116zM633 1053v0v0z" />
    <glyph glyph-name="uni00e3" unicode="&#xe3;" 
d="M514 227q-106 -162 -180 -209q-73 -47 -155 -47q-104 0 -163 70t-59 199q0 224 183 462q184 239 371 239q76 0 117 -49q42 -49 42 -95l39 118l226 14l-174 -579q-41 -137 -41 -201q0 -35 29 -35q38 0 143 142l43 -30q-164 -258 -306 -258q-57 0 -98 37q-41 38 -41 97
q0 38 24 125zM215 235q0 -58 26 -88q27 -30 62 -30q103 0 211 227q109 228 109 403q0 107 -77 107q-108 0 -220 -236q-111 -236 -111 -383zM633 1053v0v0zM755 0v0v0zM307 1095q53 245 246 245q56 0 167 -46q111 -45 136 -45q33 0 56 17t51 74h83q-64 -245 -238 -245
q-58 0 -167 45q-108 46 -147 46q-68 0 -104 -91h-83zM633 1053v0v0z" />
    <glyph glyph-name="uni00e4" unicode="&#xe4;" 
d="M514 227q-106 -162 -180 -209q-73 -47 -155 -47q-104 0 -163 70t-59 199q0 224 183 462q184 239 371 239q76 0 117 -49q42 -49 42 -95l39 118l226 14l-174 -579q-41 -137 -41 -201q0 -35 29 -35q38 0 143 142l43 -30q-164 -258 -306 -258q-57 0 -98 37q-41 38 -41 97
q0 38 24 125zM215 235q0 -58 26 -88q27 -30 62 -30q103 0 211 227q109 228 109 403q0 107 -77 107q-108 0 -220 -236q-111 -236 -111 -383zM633 1053v0v0zM755 0v0v0zM287 1198q0 59 38 98q39 39 95 39q55 0 94 -40t39 -97q0 -56 -39 -93q-39 -36 -96 -36q-54 0 -93 37
q-38 38 -38 92zM713 1198q0 59 38 98q39 39 95 39q55 0 94 -40t39 -97q0 -56 -39 -93q-39 -36 -96 -36q-52 0 -92 36q-39 37 -39 93zM633 1053v0v0z" />
    <glyph glyph-name="uni00e5" unicode="&#xe5;" 
d="M514 227q-106 -162 -180 -209q-73 -47 -155 -47q-104 0 -163 70t-59 199q0 224 183 462q184 239 371 239q76 0 117 -49q42 -49 42 -95l39 118l226 14l-174 -579q-41 -137 -41 -201q0 -35 29 -35q38 0 143 142l43 -30q-164 -258 -306 -258q-57 0 -98 37q-41 38 -41 97
q0 38 24 125zM215 235q0 -58 26 -88q27 -30 62 -30q103 0 211 227q109 228 109 403q0 107 -77 107q-108 0 -220 -236q-111 -236 -111 -383zM633 1053v0v0zM755 0v0v0zM441 1269q0 90 63 155t153 65t155 -65t65 -155t-65 -153t-155 -63t-153 63t-63 153zM541 1270
q0 -49 34 -83t83 -34q48 0 83 35q36 35 36 84q0 48 -36 82q-35 35 -83 35q-49 0 -83 -36q-34 -35 -34 -83zM633 1053v0v0z" />
    <glyph glyph-name="uni00e6" unicode="&#xe6;" horiz-adv-x="1479" 
d="M570 243q-152 -272 -355 -272q-95 0 -161 67t-66 198q0 223 186 464q187 241 373 241q128 0 171 -128l35 112l211 10v0l-39 -122q103 128 251 128q204 0 204 -184q0 -112 -118 -221q-118 -108 -436 -170q-10 -50 -10 -94q0 -170 142 -170q155 0 254 173l59 -34
q-139 -270 -389 -270q-153 0 -221 69t-91 203v0zM246 241q0 -124 100 -124q122 0 227 234q106 235 106 373q0 130 -101 130q-107 0 -220 -227q-112 -226 -112 -386zM841 433q94 0 225 105t131 254q0 87 -70 87q-152 0 -261 -363z" />
    <glyph glyph-name="uni00e7" unicode="&#xe7;" horiz-adv-x="909" 
d="M667 291l59 -37q-124 -182 -216 -233q-91 -50 -189 -50q-137 0 -219 86q-82 87 -82 225q0 231 179 445t394 214q103 0 166 -47t63 -127q0 -75 -38 -111q-37 -35 -94 -35q-39 0 -77 27q-37 28 -37 82q0 31 20 66q23 35 23 46q0 37 -45 37q-108 0 -202 -207
q-94 -206 -94 -367q0 -203 147 -203q118 0 242 189zM659 1053v0v0zM311 0v0v0zM-41 -386l46 63q74 -29 138 -29q109 0 109 86q0 71 -98 71q-27 0 -58 -8l-25 24l133 195h92l-92 -132q28 4 51 4q74 0 129 -39q55 -38 55 -104q0 -86 -76 -133t-188 -47q-93 0 -216 49zM311 0v0
v0z" />
    <glyph glyph-name="uni00e8" unicode="&#xe8;" horiz-adv-x="909" 
d="M282 371q-12 -56 -12 -97q0 -172 141 -172q106 0 232 189l59 -35q-81 -147 -176 -216q-94 -69 -201 -69q-130 0 -222 82q-91 82 -91 225q0 230 178 446q178 217 411 217q91 0 152 -46q61 -45 61 -134q0 -115 -140 -235q-139 -120 -392 -155zM297 438q137 32 235 128
q99 97 99 239q0 74 -60 74q-74 0 -154 -125q-79 -124 -120 -316zM574 1053v0v0zM446 0v0v0zM649 1053l-251 166q-89 59 -89 114q0 30 27 59q28 29 67 29q59 0 118 -78l220 -290h-92zM574 1053v0v0z" />
    <glyph glyph-name="uni00e9" unicode="&#xe9;" horiz-adv-x="909" 
d="M282 371q-12 -56 -12 -97q0 -172 141 -172q106 0 232 189l59 -35q-81 -147 -176 -216q-94 -69 -201 -69q-130 0 -222 82q-91 82 -91 225q0 230 178 446q178 217 411 217q91 0 152 -46q61 -45 61 -134q0 -115 -140 -235q-139 -120 -392 -155zM297 438q137 32 235 128
q99 97 99 239q0 74 -60 74q-74 0 -154 -125q-79 -124 -120 -316zM574 1053v0v0zM446 0v0v0zM490 1053h-100l271 285q30 33 59 58t70 25q38 0 67 -29t29 -69q0 -49 -96 -102zM574 1053v0v0z" />
    <glyph glyph-name="uni00ea" unicode="&#xea;" horiz-adv-x="909" 
d="M282 371q-12 -56 -12 -97q0 -172 141 -172q106 0 232 189l59 -35q-81 -147 -176 -216q-94 -69 -201 -69q-130 0 -222 82q-91 82 -91 225q0 230 178 446q178 217 411 217q91 0 152 -46q61 -45 61 -134q0 -115 -140 -235q-139 -120 -392 -155zM297 438q137 32 235 128
q99 97 99 239q0 74 -60 74q-74 0 -154 -125q-79 -124 -120 -316zM574 1053v0v0zM446 0v0v0zM230 1053l336 352h166l176 -352h-104l-180 193v0l-278 -193h-116zM574 1053v0v0z" />
    <glyph glyph-name="uni00eb" unicode="&#xeb;" horiz-adv-x="909" 
d="M282 371q-12 -56 -12 -97q0 -172 141 -172q106 0 232 189l59 -35q-81 -147 -176 -216q-94 -69 -201 -69q-130 0 -222 82q-91 82 -91 225q0 230 178 446q178 217 411 217q91 0 152 -46q61 -45 61 -134q0 -115 -140 -235q-139 -120 -392 -155zM297 438q137 32 235 128
q99 97 99 239q0 74 -60 74q-74 0 -154 -125q-79 -124 -120 -316zM574 1053v0v0zM446 0v0v0zM228 1198q0 59 38 98q39 39 95 39q55 0 94 -40t39 -97q0 -56 -39 -93q-39 -36 -96 -36q-54 0 -93 37q-38 38 -38 92zM654 1198q0 59 38 98q39 39 95 39q55 0 94 -40t39 -97
q0 -56 -39 -93q-39 -36 -96 -36q-52 0 -92 36q-39 37 -39 93zM574 1053v0v0z" />
    <glyph glyph-name="uni00ec" unicode="&#xec;" horiz-adv-x="569" 
d="M437 275l47 -29q-116 -177 -186 -226t-150 -49q-71 0 -108 34q-36 34 -36 103q0 46 33 166l102 378q25 89 25 110q0 65 -107 65h-14v55q250 18 414 59v0l-193 -703q-14 -53 -14 -93q0 -14 9 -23t24 -9q48 0 154 162zM367 1053v0v0zM0 941v0v0zM442 1053l-251 166
q-89 59 -89 114q0 30 27 59q28 29 67 29q59 0 118 -78l220 -290h-92zM367 1053v0v0z" />
    <glyph glyph-name="uni00ed" unicode="&#xed;" horiz-adv-x="569" 
d="M437 275l47 -29q-116 -177 -186 -226t-150 -49q-71 0 -108 34q-36 34 -36 103q0 46 33 166l102 378q25 89 25 110q0 65 -107 65h-14v55q250 18 414 59v0l-193 -703q-14 -53 -14 -93q0 -14 9 -23t24 -9q48 0 154 162zM367 1053v0v0zM0 941v0v0zM283 1053h-100l271 285
q30 33 59 58t70 25q38 0 67 -29t29 -69q0 -49 -96 -102zM367 1053v0v0z" />
    <glyph glyph-name="uni00ee" unicode="&#xee;" horiz-adv-x="569" 
d="M437 275l47 -29q-116 -177 -186 -226t-150 -49q-71 0 -108 34q-36 34 -36 103q0 46 33 166l102 378q25 89 25 110q0 65 -107 65h-14v55q250 18 414 59v0l-193 -703q-14 -53 -14 -93q0 -14 9 -23t24 -9q48 0 154 162zM367 1053v0v0zM0 941v0v0zM23 1053l336 352h166
l176 -352h-104l-180 193v0l-278 -193h-116zM367 1053v0v0z" />
    <glyph glyph-name="uni00ef" unicode="&#xef;" horiz-adv-x="569" 
d="M437 275l47 -29q-116 -177 -186 -226t-150 -49q-71 0 -108 34q-36 34 -36 103q0 46 33 166l102 378q25 89 25 110q0 65 -107 65h-14v55q250 18 414 59v0l-193 -703q-14 -53 -14 -93q0 -14 9 -23t24 -9q48 0 154 162zM367 1053v0v0zM0 941v0v0zM21 1198q0 59 38 98
q39 39 95 39q55 0 94 -40t39 -97q0 -56 -39 -93q-39 -36 -96 -36q-54 0 -93 37q-38 38 -38 92zM447 1198q0 59 38 98q39 39 95 39q55 0 94 -40t39 -97q0 -56 -39 -93q-39 -36 -96 -36q-52 0 -92 36q-39 37 -39 93zM367 1053v0v0z" />
    <glyph glyph-name="uni00f0" unicode="&#xf0;" 
d="M522 1235v0q-120 115 -242 134l90 55q145 -19 273 -125v0l220 119l70 -66l-220 -116v0q193 -205 193 -464q0 -332 -175 -567q-175 -234 -414 -234q-150 0 -238 91q-87 92 -87 220q0 244 180 451q180 208 393 208q39 0 73 -17q35 -17 73 -74q-2 162 -129 317v0l-248 -130
l-66 63zM234 168q0 -135 106 -135q135 0 229 262q95 263 95 458q0 126 -96 126q-140 0 -237 -267t-97 -444z" />
    <glyph glyph-name="uni00f1" unicode="&#xf1;" horiz-adv-x="1139" 
d="M-12 0l146 520q65 227 65 255q0 33 -25 42q-24 10 -88 10v55q167 0 409 59v0l-128 -400q119 181 217 290q98 110 231 110q149 0 149 -165q0 -76 -91 -342q-63 -178 -76 -227q-13 -48 -13 -55q0 -23 7 -31t26 -8q39 0 139 146l47 -26q-89 -151 -163 -207q-74 -55 -156 -55
q-145 0 -145 135q0 87 89 357q55 163 72 213q18 50 18 70q0 25 -13 36q-12 12 -36 12q-68 0 -181 -168q-113 -167 -187 -388q-37 -118 -67 -238h-246zM622 1053v0v0zM440 0v0v0zM296 1095q53 245 246 245q56 0 167 -46q111 -45 136 -45q33 0 56 17t51 74h83
q-64 -245 -238 -245q-58 0 -167 45q-108 46 -147 46q-68 0 -104 -91h-83zM622 1053v0v0z" />
    <glyph glyph-name="uni00f2" unicode="&#xf2;" 
d="M-8 278q0 246 178 454q178 209 418 209q131 0 224 -84q94 -83 94 -234q0 -232 -171 -442q-170 -210 -411 -210q-131 0 -232 79q-100 80 -100 228zM234 172q0 -139 106 -139q125 0 224 266q100 266 100 451q0 129 -99 129q-136 0 -234 -264q-97 -264 -97 -443zM603 1053v0
v0zM678 1053l-251 166q-89 59 -89 114q0 30 27 59q28 29 67 29q59 0 118 -78l220 -290h-92zM603 1053v0v0z" />
    <glyph glyph-name="uni00f3" unicode="&#xf3;" 
d="M-8 278q0 246 178 454q178 209 418 209q131 0 224 -84q94 -83 94 -234q0 -232 -171 -442q-170 -210 -411 -210q-131 0 -232 79q-100 80 -100 228zM234 172q0 -139 106 -139q125 0 224 266q100 266 100 451q0 129 -99 129q-136 0 -234 -264q-97 -264 -97 -443zM603 1053v0
v0zM519 1053h-100l271 285q30 33 59 58t70 25q38 0 67 -29t29 -69q0 -49 -96 -102zM603 1053v0v0z" />
    <glyph glyph-name="uni00f4" unicode="&#xf4;" 
d="M-8 278q0 246 178 454q178 209 418 209q131 0 224 -84q94 -83 94 -234q0 -232 -171 -442q-170 -210 -411 -210q-131 0 -232 79q-100 80 -100 228zM234 172q0 -139 106 -139q125 0 224 266q100 266 100 451q0 129 -99 129q-136 0 -234 -264q-97 -264 -97 -443zM603 1053v0
v0zM259 1053l336 352h166l176 -352h-104l-180 193v0l-278 -193h-116zM603 1053v0v0z" />
    <glyph glyph-name="uni00f5" unicode="&#xf5;" 
d="M-8 278q0 246 178 454q178 209 418 209q131 0 224 -84q94 -83 94 -234q0 -232 -171 -442q-170 -210 -411 -210q-131 0 -232 79q-100 80 -100 228zM234 172q0 -139 106 -139q125 0 224 266q100 266 100 451q0 129 -99 129q-136 0 -234 -264q-97 -264 -97 -443zM603 1053v0
v0zM277 1095q53 245 246 245q56 0 167 -46q111 -45 136 -45q33 0 56 17t51 74h83q-64 -245 -238 -245q-58 0 -167 45q-108 46 -147 46q-68 0 -104 -91h-83zM603 1053v0v0z" />
    <glyph glyph-name="uni00f6" unicode="&#xf6;" 
d="M-8 278q0 246 178 454q178 209 418 209q131 0 224 -84q94 -83 94 -234q0 -232 -171 -442q-170 -210 -411 -210q-131 0 -232 79q-100 80 -100 228zM234 172q0 -139 106 -139q125 0 224 266q100 266 100 451q0 129 -99 129q-136 0 -234 -264q-97 -264 -97 -443zM603 1053v0
v0zM257 1198q0 59 38 98q39 39 95 39q55 0 94 -40t39 -97q0 -56 -39 -93q-39 -36 -96 -36q-54 0 -93 37q-38 38 -38 92zM683 1198q0 59 38 98q39 39 95 39q55 0 94 -40t39 -97q0 -56 -39 -93q-39 -36 -96 -36q-52 0 -92 36q-39 37 -39 93zM603 1053v0v0z" />
    <glyph glyph-name="uni00f7" unicode="&#xf7;" horiz-adv-x="1167" 
d="M588 238q60 0 104 -43q44 -42 44 -107q0 -68 -44 -111t-112 -43q-72 0 -110 48t-38 106q0 61 44 105q45 45 112 45zM64 430v180h1040v-180h-1040zM588 1106q63 0 105 -44q43 -43 43 -106q0 -64 -42 -109t-114 -45t-110 48t-38 106q0 61 44 105q45 45 112 45z" />
    <glyph glyph-name="uni00f8" unicode="&#xf8;" 
d="M151 11v0q-159 80 -159 267q0 240 180 451q181 212 417 212q41 0 84 -11v0l124 219h74l-134 -244v0q169 -75 169 -279q0 -249 -174 -452t-407 -203q-54 0 -108 13v0l-131 -237h-82zM664 767v0l-402 -703v0q25 -31 76 -31q132 0 229 265q97 266 97 443v26zM234 159v0
l395 689v0q-27 31 -65 31q-141 0 -236 -268q-94 -267 -94 -452v0z" />
    <glyph glyph-name="uni00f9" unicode="&#xf9;" horiz-adv-x="1139" 
d="M765 912h242q-60 -205 -119 -409q-92 -308 -92 -349t33 -41q44 0 143 146l43 -27q-147 -261 -326 -261q-68 0 -102 33q-33 34 -33 86q0 72 43 217q-135 -192 -224 -264q-88 -72 -181 -72q-77 0 -119 41t-42 116q0 74 74 327q78 256 78 309q0 63 -113 63v55q110 4 230 25
t199 34v0l-199 -640q-27 -87 -27 -132q0 -51 46 -51q54 0 141 105q61 71 99 140q96 167 206 549zM686 1053v0v0zM819 0v0v0zM0 941v0v0zM761 1053l-251 166q-89 59 -89 114q0 30 27 59q28 29 67 29q59 0 118 -78l220 -290h-92zM686 1053v0v0z" />
    <glyph glyph-name="uni00fa" unicode="&#xfa;" horiz-adv-x="1139" 
d="M765 912h242q-60 -205 -119 -409q-92 -308 -92 -349t33 -41q44 0 143 146l43 -27q-147 -261 -326 -261q-68 0 -102 33q-33 34 -33 86q0 72 43 217q-135 -192 -224 -264q-88 -72 -181 -72q-77 0 -119 41t-42 116q0 74 74 327q78 256 78 309q0 63 -113 63v55q110 4 230 25
t199 34v0l-199 -640q-27 -87 -27 -132q0 -51 46 -51q54 0 141 105q61 71 99 140q96 167 206 549zM686 1053v0v0zM819 0v0v0zM0 941v0v0zM602 1053h-100l271 285q30 33 59 58t70 25q38 0 67 -29t29 -69q0 -49 -96 -102zM686 1053v0v0z" />
    <glyph glyph-name="uni00fb" unicode="&#xfb;" horiz-adv-x="1139" 
d="M765 912h242q-60 -205 -119 -409q-92 -308 -92 -349t33 -41q44 0 143 146l43 -27q-147 -261 -326 -261q-68 0 -102 33q-33 34 -33 86q0 72 43 217q-135 -192 -224 -264q-88 -72 -181 -72q-77 0 -119 41t-42 116q0 74 74 327q78 256 78 309q0 63 -113 63v55q110 4 230 25
t199 34v0l-199 -640q-27 -87 -27 -132q0 -51 46 -51q54 0 141 105q61 71 99 140q96 167 206 549zM686 1053v0v0zM819 0v0v0zM0 941v0v0zM342 1053l336 352h166l176 -352h-104l-180 193v0l-278 -193h-116zM686 1053v0v0z" />
    <glyph glyph-name="uni00fc" unicode="&#xfc;" horiz-adv-x="1139" 
d="M765 912h242q-60 -205 -119 -409q-92 -308 -92 -349t33 -41q44 0 143 146l43 -27q-147 -261 -326 -261q-68 0 -102 33q-33 34 -33 86q0 72 43 217q-135 -192 -224 -264q-88 -72 -181 -72q-77 0 -119 41t-42 116q0 74 74 327q78 256 78 309q0 63 -113 63v55q110 4 230 25
t199 34v0l-199 -640q-27 -87 -27 -132q0 -51 46 -51q54 0 141 105q61 71 99 140q96 167 206 549zM686 1053v0v0zM819 0v0v0zM0 941v0v0zM340 1198q0 59 38 98q39 39 95 39q55 0 94 -40t39 -97q0 -56 -39 -93q-39 -36 -96 -36q-54 0 -93 37q-38 38 -38 92zM766 1198
q0 59 38 98q39 39 95 39q55 0 94 -40t39 -97q0 -56 -39 -93q-39 -36 -96 -36q-52 0 -92 36q-39 37 -39 93zM686 1053v0v0z" />
    <glyph glyph-name="uni00fd" unicode="&#xfd;" horiz-adv-x="909" 
d="M27 891q179 16 304 50v0q75 -178 159 -710v0q172 343 172 402q0 43 -58 86q-55 40 -55 111q0 40 35 75q35 36 86 36q55 0 90 -34q35 -33 35 -100q0 -219 -272 -682q-187 -307 -325 -424q-137 -117 -266 -117q-56 0 -93 39q-36 39 -36 85q0 42 32 77t79 35q42 0 103 -38
q61 -34 80 -34q48 0 117 105t69 208v0v0q0 66 -46 299q-40 194 -62 270q-38 142 -62 172q-24 34 -86 34v0v55zM540 1053v0v0zM0 941v0v0zM456 1053h-100l271 285q30 33 59 58t70 25q38 0 67 -29t29 -69q0 -49 -96 -102zM540 1053v0v0z" />
    <glyph glyph-name="uni00fe" unicode="&#xfe;" 
d="M-246 -416v0v55q85 0 109 37t47 126l352 1364q19 68 19 85q0 33 -19 46q-18 13 -78 13h-32v55q256 26 337 41q81 16 81 18v0l-200 -707q158 224 314 224q222 0 222 -261q0 -247 -178 -478t-384 -231q-35 0 -73 13q-37 13 -63 32l-61 -235q-14 -55 -14 -76q0 -46 33 -56
q34 -10 99 -10v-55h-511zM230 118q0 -43 23 -60t55 -17q130 0 235 246q105 247 105 405q0 106 -75 106q-153 0 -248 -311t-95 -369z" />
    <glyph glyph-name="uni00ff" unicode="&#xff;" horiz-adv-x="909" 
d="M27 891q179 16 304 50v0q75 -178 159 -710v0q172 343 172 402q0 43 -58 86q-55 40 -55 111q0 40 35 75q35 36 86 36q55 0 90 -34q35 -33 35 -100q0 -219 -272 -682q-187 -307 -325 -424q-137 -117 -266 -117q-56 0 -93 39q-36 39 -36 85q0 42 32 77t79 35q42 0 103 -38
q61 -34 80 -34q48 0 117 105t69 208v0v0q0 66 -46 299q-40 194 -62 270q-38 142 -62 172q-24 34 -86 34v0v55zM540 1053v0v0zM0 941v0v0zM194 1198q0 59 38 98q39 39 95 39q55 0 94 -40t39 -97q0 -56 -39 -93q-39 -36 -96 -36q-54 0 -93 37q-38 38 -38 92zM620 1198
q0 59 38 98q39 39 95 39q55 0 94 -40t39 -97q0 -56 -39 -93q-39 -36 -96 -36q-52 0 -92 36q-39 37 -39 93zM540 1053v0v0z" />
    <glyph glyph-name="uni0152" unicode="&#x152;" horiz-adv-x="1933" 
d="M1680 0h-633q-93 0 -251 -7q-157 -7 -255 -7q-227 0 -359 125t-132 358q0 327 245 624t646 297q70 0 175 -7q106 -7 140 -7h689l-92 -384l-53 12v64q0 126 -87 184t-245 58q-60 0 -80 -24t-32 -69l-128 -463h68q112 0 188 40t135 168l50 -6l-145 -556l-49 10q8 47 8 110
q0 98 -63 127q-62 30 -211 41l-133 -481q-20 -78 11 -110q32 -31 129 -31h30q323 0 505 334l53 -10zM1028 1053q34 126 10 196q-23 71 -128 71q-245 0 -402 -350q-157 -349 -157 -633q0 -119 60 -200t181 -81q85 0 136 50t80 153z" />
    <glyph glyph-name="uni0153" unicode="&#x153;" horiz-adv-x="1479" 
d="M639 83q-113 -112 -309 -112q-122 0 -220 82t-98 267q0 201 178 411t415 210q153 0 238 -128q75 62 143 95t148 33q234 0 234 -190q0 -128 -144 -229q-143 -100 -384 -147q-16 -75 -16 -117q0 -156 136 -156q60 0 114 33t123 140l59 -30q-138 -274 -386 -274
q-132 0 -231 112zM254 205q0 -172 111 -172q127 0 223 266q96 267 96 431q0 149 -116 149q-119 0 -217 -266q-97 -266 -97 -408zM855 442q148 33 239 134q91 102 91 218q0 85 -72 85q-66 0 -130 -115q-63 -114 -128 -322z" />
    <glyph glyph-name="uni0160" unicode="&#x160;" horiz-adv-x="1139" 
d="M74 428l57 -4q0 -155 79 -272q80 -116 240 -116q121 0 190 77q70 77 70 186q0 107 -134 225q-240 212 -305 291q-64 80 -64 188q0 177 114 293q115 116 303 116q73 0 167 -32t127 -32q67 0 92 56h61l-80 -408l-56 8q-37 336 -266 336q-106 0 -160 -65q-53 -64 -53 -161
q0 -61 36 -110t199 -179q268 -211 268 -421q0 -207 -119 -324q-119 -116 -359 -116q-91 0 -204 32q-112 32 -133 32q-27 0 -47 -14q-19 -14 -37 -50h-61zM648 1492v0v0zM405 0v0v0zM1064 1844l-336 -352h-166l-176 352h104l180 -197v0l278 197h116zM648 1492v0v0z" />
    <glyph glyph-name="uni0161" unicode="&#x161;" horiz-adv-x="797" 
d="M52 307l54 -6q12 -127 66 -198q54 -70 131 -70q57 0 87 33q31 34 31 73q0 44 -16 77q-16 34 -59 85q-165 197 -189 263q-24 67 -24 123q0 110 74 182t207 72q54 0 110 -23q57 -22 88 -22t57 42h59l-47 -317l-54 4q-41 250 -185 250q-61 0 -88 -33q-26 -32 -26 -80
q0 -29 20 -65q20 -35 53 -75q139 -175 177 -238q38 -62 38 -141q0 -122 -87 -197q-86 -75 -217 -75q-52 0 -115 20q-62 21 -80 21q-45 0 -57 -41h-55zM527 1053v0v0zM291 0v0v0zM943 1405l-336 -352h-166l-176 352h104l180 -197v0l278 197h116zM527 1053v0v0z" />
    <glyph glyph-name="uni0178" unicode="&#x178;" horiz-adv-x="1251" 
d="M151 0v51q107 9 145 36q38 28 65 126l119 432l-177 543q-15 47 -37 86q-21 40 -115 51v51v0h578v-51q-34 0 -90 -13q-56 -12 -56 -59q0 -41 21 -103l139 -424v0l263 376q34 49 46 75t12 68q0 35 -30 57q-29 23 -111 23v51h428v-51q-99 -19 -184 -143l-390 -548l-105 -387
q-18 -69 -18 -103q0 -58 41 -76q41 -17 114 -17v-51v0h-658zM817 1492v0v0zM0 1412v0v0zM471 1637q0 59 38 98q39 39 95 39q55 0 94 -40t39 -97q0 -56 -39 -93q-39 -36 -96 -36q-54 0 -93 37q-38 38 -38 92zM897 1637q0 59 38 98q39 39 95 39q55 0 94 -40t39 -97
q0 -56 -39 -93q-39 -36 -96 -36q-52 0 -92 36q-39 37 -39 93zM817 1492v0v0z" />
    <glyph glyph-name="uni017d" unicode="&#x17d;" horiz-adv-x="1251" 
d="M865 1306v0h-162q-178 0 -294 -74t-222 -224l-56 8l118 360h959v-59l-889 -1247v0h163q230 0 359 81t236 249l56 -10l-122 -390h-1035v59zM712 1492v0v0zM0 1412v0v0zM1128 1844l-336 -352h-166l-176 352h104l180 -197v0l278 197h116zM712 1492v0v0z" />
    <glyph glyph-name="uni017e" unicode="&#x17e;" horiz-adv-x="797" 
d="M-90 -3l606 718v0h-298q-88 0 -136 -123l-59 6l90 314h645v-21l-579 -678v0q43 -13 94 -53q51 -39 96 -117l48 -87q33 -60 77 -60q24 0 34 6q11 6 11 27q0 11 -20 37q-19 26 -19 60q0 31 29 63q29 33 73 33q47 0 78 -30q31 -29 31 -83q0 -65 -60 -120t-154 -55
q-122 0 -246 88q-123 88 -179 88q-31 0 -55 -18t-56 -40zM439 1053v0v0zM0 941v0v0zM855 1405l-336 -352h-166l-176 352h104l180 -197v0l278 197h116zM439 1053v0v0z" />
    <glyph glyph-name="uni0192" unicode="&#x192;" 
d="M375 805v0h-219l16 88h223v0q50 219 145 358q131 189 333 189q94 0 160 -49q67 -48 67 -122q0 -66 -32 -100q-32 -33 -91 -33q-41 0 -74 25q-33 26 -33 75q0 43 28 74q31 30 31 35q0 33 -47 33q-111 0 -166 -214q-25 -92 -55 -271v0h247l-20 -88h-241v0l-59 -302
q-82 -451 -216 -637t-336 -186q-92 0 -154 47t-62 134v0q0 54 34 88q34 35 84 35q53 0 80 -29q28 -29 28 -76q0 -31 -30 -66q-29 -32 -29 -40q0 -31 48 -31q79 0 123 81t78 252z" />
    <glyph glyph-name="uni02c6" unicode="&#x2c6;" horiz-adv-x="682" 
d="M80 1056l336 352h166l176 -352h-104l-180 193v0l-278 -193h-116zM424 1056v0v0z" />
    <glyph glyph-name="uni02dc" unicode="&#x2dc;" horiz-adv-x="682" 
d="M96 1098q53 245 246 245q56 0 167 -46q111 -45 136 -45q33 0 56 17t51 74h83q-64 -245 -238 -245q-58 0 -167 45q-108 46 -147 46q-68 0 -104 -91h-83zM422 1056v0v0z" />
    <glyph glyph-name="uni2013" unicode="&#x2013;" 
d="M-80 361l33 185h1023l-33 -185h-1023z" />
    <glyph glyph-name="uni2014" unicode="&#x2014;" horiz-adv-x="2048" 
d="M-80 361l33 185h2047l-33 -185h-2047z" />
    <glyph glyph-name="uni2018" unicode="&#x2018;" horiz-adv-x="682" 
d="M674 1365v0q-242 -126 -242 -236q0 -35 73 -85q72 -51 72 -124q0 -66 -39 -108q-39 -43 -107 -43q-77 0 -125 52q-49 52 -49 139q0 131 100 247q99 115 291 205z" />
    <glyph glyph-name="uni2019" unicode="&#x2019;" horiz-adv-x="682" 
d="M207 816v0q242 126 242 236q0 35 -73 85q-72 51 -72 124q0 66 39 108q39 43 107 43q77 0 125 -52q49 -52 49 -139q0 -131 -100 -247q-99 -115 -291 -205z" />
    <glyph glyph-name="uni201a" unicode="&#x201a;" horiz-adv-x="682" 
d="M-4 -312v0q242 126 242 236q0 35 -73 85q-72 51 -72 124q0 66 39 108q39 43 107 43q77 0 125 -52q49 -52 49 -139q0 -131 -100 -247q-99 -115 -291 -205z" />
    <glyph glyph-name="uni201c" unicode="&#x201c;" 
d="M1048 1365v0q-242 -126 -242 -236q0 -35 73 -85q72 -51 72 -124q0 -66 -40 -108q-40 -43 -106 -43q-73 0 -123 48q-51 48 -51 143q0 136 104 250q103 114 287 202zM520 1365v0q-242 -126 -242 -236q0 -35 73 -85q72 -51 72 -124q0 -66 -40 -108q-40 -43 -106 -43
q-75 0 -124 50q-50 50 -50 141q0 122 91 236t300 216z" />
    <glyph glyph-name="uni201d" unicode="&#x201d;" 
d="M111 816v0q242 126 242 236q0 35 -73 85q-72 51 -72 124q0 66 40 108q40 43 106 43q73 0 123 -48q51 -48 51 -143q0 -136 -104 -250q-103 -114 -287 -202zM639 816v0q242 126 242 236q0 35 -73 85q-72 51 -72 124q0 66 40 108q40 43 106 43q75 0 124 -50q50 -50 50 -141
q0 -122 -91 -236t-300 -216z" />
    <glyph glyph-name="uni201e" unicode="&#x201e;" 
d="M-114 -312v0q242 126 242 236q0 35 -73 85q-72 51 -72 124q0 66 40 108q40 43 106 43q73 0 123 -48q51 -48 51 -143q0 -136 -104 -250q-103 -114 -287 -202zM414 -312v0q242 126 242 236q0 35 -73 85q-72 51 -72 124q0 66 40 108q40 43 106 43q75 0 124 -50
q50 -50 50 -141q0 -122 -91 -236t-300 -216z" />
    <glyph glyph-name="uni2020" unicode="&#x2020;" 
d="M380 577q70 62 124 172q54 111 57 169q-83 0 -152 -41q-68 -39 -121 -39q-43 0 -73 27q-30 28 -30 69q0 111 104 111q43 0 118 -40t162 -40q14 56 14 114q0 31 -19 104q-19 74 -19 111q0 47 27 83t90 36q47 0 81 -34q34 -33 34 -80q0 -54 -44 -111q-90 -120 -112 -223
q74 0 154 39q83 41 119 41q55 0 83 -27q28 -26 28 -77q0 -43 -31 -73t-89 -30q-14 0 -35 6q-21 7 -70 34q-74 40 -169 40q-14 -68 -14 -109q0 -113 52 -250q-105 -131 -192 -468l-101 -386h-47l56 346q29 178 29 380q0 108 -14 146z" />
    <glyph glyph-name="uni2021" unicode="&#x2021;" 
d="M561 931v0q-78 0 -157 -40q-76 -37 -116 -37q-101 0 -101 107q0 39 23 69q23 31 82 31q38 0 110 -40q73 -40 169 -40v0q14 55 14 112q0 44 -15 105q-14 64 -14 93q0 54 27 88q28 34 90 34v0q43 0 74 -29q32 -28 32 -77q0 -48 -60 -129q-70 -98 -96 -197v0q64 0 158 40
q96 40 123 40q41 0 70 -30q29 -29 29 -70q0 -44 -31 -76q-31 -31 -74 -31q-35 0 -127 40q-89 40 -156 40v0q-16 -64 -16 -163q0 -126 52 -208v0v0q-118 -111 -182 -368v0q79 0 158 39q80 39 115 39q41 0 71 -28t30 -79q0 -49 -30 -75q-30 -25 -78 -25q-35 0 -110 39
q-74 40 -166 40v0q-14 -55 -14 -113q0 -46 14 -108q15 -62 15 -88q0 -122 -117 -122v0q-44 0 -75 29t-31 70q0 50 59 133q73 100 97 199v0q-76 0 -159 -40q-83 -39 -117 -39q-48 0 -76 31t-28 65q0 56 28 83q29 28 78 28q48 0 123 -41q76 -40 159 -40v0q16 63 16 167
q0 122 -52 205v0v0q120 113 182 367z" />
    <glyph glyph-name="uni2022" unicode="&#x2022;" horiz-adv-x="717" 
d="M0 718q0 147 106 252t257 105q147 0 252 -107q105 -106 105 -256q0 -148 -107 -253q-106 -104 -256 -104t-254 106q-103 106 -103 257z" />
    <glyph glyph-name="uni2026" unicode="&#x2026;" horiz-adv-x="2048" 
d="M80 130q0 61 43 105t111 44q69 0 109 -44t40 -105q0 -64 -43 -109q-42 -45 -111 -45q-66 0 -108 45q-41 45 -41 109zM752 130q0 65 45 107t109 42q69 0 109 -44t40 -105q0 -64 -44 -109q-43 -45 -110 -45q-66 0 -108 45q-41 45 -41 109zM1424 130q0 61 43 105t111 44
q69 0 109 -44t40 -105q0 -64 -43 -109q-42 -45 -111 -45q-66 0 -108 45q-41 45 -41 109z" />
    <glyph glyph-name="uni2030" unicode="&#x2030;" horiz-adv-x="2048" 
d="M625 1225v0q8 -50 8 -88q0 -191 -100 -335q-100 -143 -264 -143q-93 0 -173 74q-80 75 -80 203q0 193 125 320q126 127 272 127q78 0 149 -58q78 -63 176 -63q190 0 336 193h98l-894 -1512h-98l783 1335v0q-87 -79 -222 -79q-58 0 -116 26zM433 1315q-67 0 -142 -157
q-74 -157 -74 -291q0 -149 106 -149q97 0 177 133t80 298q0 23 -6 61q-5 38 -32 47q-45 15 -67 36q-22 22 -42 22zM682 258q0 157 117 293q117 137 278 137q222 0 222 -257q0 -139 -91 -303t-261 -164q-113 0 -189 73q-76 74 -76 221zM883 168q0 -145 101 -145
q111 0 186 146q76 147 76 274q0 76 -31 126q-31 51 -88 51q-87 0 -166 -162q-78 -162 -78 -290zM1426 258q0 154 111 292q112 138 284 138q222 0 222 -257q0 -157 -94 -312q-93 -155 -258 -155q-107 0 -186 73q-79 74 -79 221zM1627 168q0 -145 101 -145q103 0 182 140
q80 140 80 280q0 76 -31 126q-31 51 -88 51q-94 0 -169 -162t-75 -290z" />
    <glyph glyph-name="uni2039" unicode="&#x2039;" horiz-adv-x="682" 
d="M318 455l83 -180q61 -134 61 -176v0q0 -33 -27 -33q-15 0 -53 44q-85 96 -320 340v19q397 280 470 342q44 39 59 39q31 0 31 -28v0q0 -48 -104 -157z" />
    <glyph glyph-name="uni203a" unicode="&#x203a;" horiz-adv-x="682" 
d="M323 461l-83 180q-61 134 -61 176v0q0 33 27 33q15 0 53 -44q85 -96 320 -340v-19q-397 -280 -470 -342q-44 -39 -59 -39q-31 0 -31 28v0q0 48 104 157z" />
    <glyph glyph-name="uni20ac" unicode="&#x20ac;" 
d="M1095 1005l-53 8q0 132 -53 226t-158 94q-216 0 -352 -447h402l-45 -102h-384q-20 -80 -32 -160h349l-45 -102h-319q-4 -44 -4 -78q0 -195 58 -277q58 -81 176 -81q164 0 305 192l53 -35q-108 -153 -206 -209q-97 -56 -212 -56q-196 0 -314 146q-118 147 -118 375v23
h-213l45 102h174q8 81 29 160h-137l49 102h119q68 210 224 364q156 155 363 155q90 0 167 -30q77 -29 94 -29q42 0 63 59h45z" />
    <glyph glyph-name="uni2122" unicode="&#x2122;" horiz-adv-x="2048" 
d="M1985 1376v-45q-65 0 -86 -29q-21 -28 -21 -83v-534v-20q0 -59 59 -69l48 -7v-45h-375v45l57 7q50 6 50 62v27v486v0l-319 -627h-23l-296 624v-451q0 -77 29 -103q30 -25 78 -25v-45h-270v45q12 0 59 14q48 15 48 114v502q-33 107 -107 112v45h225l299 -621v0l328 621
h217zM792 1376v-176h-42q-31 131 -140 131h-97v-646v-20q0 -38 12 -53q12 -14 42 -18l47 -5v-45h-363v45q74 7 87 23q14 17 14 73v646h-100q-107 0 -137 -131h-42v176h719z" />
    <glyph glyph-name="uni2219" unicode="&#x2219;" horiz-adv-x="512" 
d="M107 683q0 65 45 107t109 42q61 0 105 -41t44 -108q0 -64 -40 -109t-114 -45q-68 0 -109 45q-40 45 -40 109z" />
    <glyph glyph-name="uni2592" unicode="&#x2592;" horiz-adv-x="2039" 
d="M345 -171h333v-334h-333v334zM1029 -171h332v-334h-332v334zM1712 -171h327v-334h-327v334zM684 174h339v-339h-339v339zM1367 174h339v-339h-339v339zM0 174h339v-339h-339v339zM1029 514h332v-334h-332v334zM345 514h333v-334h-333v334zM1712 514h327v-334h-327v334z
M0 853h339v-339h-339v339zM1367 853h339v-339h-339v339zM684 853h339v-339h-339v339zM1029 1189h332v-330h-332v330zM1712 1189h327v-330h-327v330zM345 1189h333v-330h-333v330zM684 1534h339v-339h-339v339zM1367 1534h339v-339h-339v339zM0 1534h339v-339h-339v339z" />
    <glyph glyph-name="glyph100" horiz-adv-x="1022" 
d="M76 0v1074h870v-1074h-870zM332 256h358v562h-358v-562z" />
    <glyph glyph-name="glyph112" horiz-adv-x="1022" 
d="M76 0v1074h870v-1074h-870zM332 256h358v562h-358v-562z" />
    <glyph glyph-name="glyph114" horiz-adv-x="1022" 
d="M76 0v1074h870v-1074h-870zM332 256h358v562h-358v-562z" />
    <glyph glyph-name="glyph115" horiz-adv-x="1022" 
d="M76 0v1074h870v-1074h-870zM332 256h358v562h-358v-562z" />
    <glyph glyph-name="glyph128" horiz-adv-x="1022" 
d="M76 0v1074h870v-1074h-870zM332 256h358v562h-358v-562z" />
    <glyph glyph-name="glyph227" horiz-adv-x="682" 
d="M838 1408l-336 -352h-166l-176 352h104l180 -197v0l278 197h116zM422 1056v0v0z" />
    <glyph glyph-name="glyph228" horiz-adv-x="342" 
d="M-352 -29l889 1434h119v-6l-889 -1428h-119z" />
    <glyph glyph-name="glyph229" horiz-adv-x="614" 
d="M343 746v0h-334v0l33 136l578 522v0h93v0l-158 -534v0h91v0l-35 -124h-88v0l-60 -186v0h-175v0zM379 870v0l104 349l-381 -349v0h277z" />
    <glyph glyph-name="glyph230" horiz-adv-x="682" 
d="M256 1672q0 90 63 155t153 65t155 -65t65 -155t-65 -153t-155 -63t-153 63t-63 153zM356 1673q0 -49 34 -83t83 -34q48 0 83 35q36 35 36 84q0 48 -36 82q-35 35 -83 35q-49 0 -83 -36q-34 -35 -34 -83zM472 1488v0v0z" />
    <glyph glyph-name="glyph231" horiz-adv-x="682" 
d="M256 1272q0 90 63 155t153 65t155 -65t65 -155t-65 -153t-155 -63t-153 63t-63 153zM356 1273q0 -49 34 -83t83 -34q48 0 83 35q36 35 36 84q0 48 -36 82q-35 35 -83 35q-49 0 -83 -36q-34 -35 -34 -83zM448 1056v0v0z" />
    <glyph glyph-name="glyph232" horiz-adv-x="569" 
d="M437 275l47 -29q-116 -177 -186 -226t-150 -49q-71 0 -108 34q-36 34 -36 103q0 46 33 166l102 378q25 89 25 110q0 65 -107 65h-14v55q250 18 414 59v0l-193 -703q-14 -53 -14 -93q0 -14 9 -23t24 -9q48 0 154 162zM367 1053v0v0zM0 941v0v0z" />
  </font>
</defs>
</svg>
